<svg width="42" height="42" viewBox="0 0 42 42" fill="none" xmlns="http://www.w3.org/2000/svg">
<path d="M27.5625 36.75C27.5625 37.098 27.4242 37.4319 27.1781 37.678C26.932 37.9241 26.5981 38.0624 26.25 38.0625H15.75C15.4019 38.0625 15.0681 37.9242 14.822 37.678C14.5758 37.4319 14.4375 37.098 14.4375 36.75C14.4375 36.4019 14.5758 36.068 14.822 35.8219C15.0681 35.5757 15.4019 35.4375 15.75 35.4375H26.25C26.5981 35.4375 26.932 35.5758 27.1781 35.8219C27.4242 36.068 27.5625 36.4019 27.5625 36.75ZM34.093 18.375C34.1057 14.9129 32.745 11.5872 30.3094 9.12686C27.8737 6.66654 24.5618 5.27246 21.0999 5.25028C21.0664 5.25012 21.0332 5.24995 20.9997 5.24995C17.5232 5.25447 14.1909 6.63981 11.7358 9.10121C9.28074 11.5626 7.90396 14.8985 7.90836 18.375C7.90836 24.0082 6.74695 27.1885 5.77283 28.8644C5.54015 29.263 5.41669 29.7159 5.41489 30.1774C5.41308 30.6389 5.53301 31.0928 5.76257 31.4932C5.99213 31.8936 6.32321 32.2264 6.72241 32.458C7.12162 32.6896 7.57484 32.8119 8.03638 32.8125H33.9637C34.4252 32.8119 34.8783 32.6896 35.2775 32.4581C35.6767 32.2265 36.0077 31.8938 36.2373 31.4935C36.4668 31.0932 36.5868 30.6394 36.5851 30.1779C36.5833 29.7165 36.46 29.2636 36.2274 28.865C35.2538 27.189 34.093 24.0085 34.093 18.375ZM37.4928 10.2651C35.9897 7.21461 33.6715 4.63975 30.7951 2.82571C30.6493 2.73334 30.4868 2.67062 30.3168 2.64113C30.1468 2.61164 29.9726 2.61597 29.8043 2.65387C29.6359 2.69177 29.4767 2.76249 29.3357 2.86198C29.1948 2.96148 29.0748 3.0878 28.9827 3.23371C28.8906 3.37963 28.8282 3.54227 28.799 3.71234C28.7698 3.8824 28.7745 4.05656 28.8127 4.22483C28.8509 4.3931 28.9219 4.55218 29.0216 4.69298C29.1214 4.83377 29.2479 4.95352 29.394 5.04536C31.8608 6.60102 33.8488 8.8091 35.1379 11.425C35.214 11.5799 35.3198 11.7181 35.4494 11.832C35.5789 11.9459 35.7296 12.0331 35.8929 12.0887C36.0561 12.1443 36.2288 12.1672 36.4009 12.156C36.573 12.1449 36.7412 12.0999 36.896 12.0237C37.0507 11.9475 37.1889 11.8415 37.3026 11.7119C37.4164 11.5822 37.5034 11.4314 37.5589 11.2681C37.6143 11.1048 37.637 10.9321 37.6257 10.76C37.6143 10.5879 37.5692 10.4197 37.4928 10.2651H37.4928ZM6.86214 11.425C8.15128 8.8091 10.1393 6.60102 12.6061 5.04536C12.752 4.95344 12.8784 4.83366 12.978 4.69288C13.0776 4.5521 13.1484 4.39307 13.1865 4.22488C13.2246 4.05669 13.2292 3.88265 13.2 3.71269C13.1708 3.54273 13.1084 3.38019 13.0164 3.23436C12.9243 3.08853 12.8044 2.96228 12.6636 2.86281C12.5227 2.76334 12.3636 2.6926 12.1954 2.65465C12.0271 2.6167 11.8531 2.61227 11.6832 2.64162C11.5132 2.67097 11.3507 2.73353 11.205 2.82571C8.32855 4.63975 6.01038 7.21461 4.50727 10.2651C4.4309 10.4197 4.38575 10.5879 4.37442 10.76C4.36308 10.9321 4.38578 11.1048 4.44121 11.2681C4.49664 11.4314 4.58372 11.5822 4.69747 11.7119C4.81122 11.8415 4.9494 11.9475 5.10413 12.0237C5.25885 12.0999 5.42708 12.1449 5.5992 12.156C5.77131 12.1672 5.94394 12.1443 6.10721 12.0887C6.27048 12.0331 6.42119 11.9459 6.55073 11.832C6.68027 11.7181 6.78609 11.5799 6.86214 11.425Z" fill="#E95E5E"/>
</svg>
