<svg width="16" height="16" viewBox="0 0 16 16" fill="none" xmlns="http://www.w3.org/2000/svg">
<path fill-rule="evenodd" clip-rule="evenodd" d="M0.520699 0.520699C1.21496 -0.173566 2.34059 -0.173566 3.03486 0.520699L15.4793 12.9651C16.1736 13.6594 16.1736 14.785 15.4793 15.4793C14.785 16.1736 13.6594 16.1736 12.9651 15.4793L0.520699 3.03486C-0.173566 2.34059 -0.173566 1.21496 0.520699 0.520699Z" fill="white"/>
<path fill-rule="evenodd" clip-rule="evenodd" d="M0.520699 0.520699C1.21496 -0.173566 2.34059 -0.173566 3.03486 0.520699L15.4793 12.9651C16.1736 13.6594 16.1736 14.785 15.4793 15.4793C14.785 16.1736 13.6594 16.1736 12.9651 15.4793L0.520699 3.03486C-0.173566 2.34059 -0.173566 1.21496 0.520699 0.520699Z" fill="#E95E5E"/>
<path fill-rule="evenodd" clip-rule="evenodd" d="M0.520699 15.4793C-0.173566 14.785 -0.173566 13.6594 0.520699 12.9651L12.9651 0.520699C13.6594 -0.173566 14.785 -0.173567 15.4793 0.520699C16.1736 1.21496 16.1736 2.34059 15.4793 3.03486L3.03486 15.4793C2.34059 16.1736 1.21496 16.1736 0.520699 15.4793Z" fill="white"/>
<path fill-rule="evenodd" clip-rule="evenodd" d="M0.520699 15.4793C-0.173566 14.785 -0.173566 13.6594 0.520699 12.9651L12.9651 0.520699C13.6594 -0.173566 14.785 -0.173567 15.4793 0.520699C16.1736 1.21496 16.1736 2.34059 15.4793 3.03486L3.03486 15.4793C2.34059 16.1736 1.21496 16.1736 0.520699 15.4793Z" fill="#E95E5E"/>
</svg>
