<svg width="48" height="48" viewBox="0 0 48 48" fill="none" xmlns="http://www.w3.org/2000/svg">
<circle cx="24" cy="24" r="24" fill="#FF961B"/>
<path d="M35.5879 23.875C34.607 22.4143 32.9612 22.5876 32.911 22.5762C32.6944 22.5762 32.4813 22.6007 32.2743 22.6469L33.4105 18.2496C33.9762 16.06 32.9529 13.7644 30.9451 12.7239C28.7376 11.5801 26.4016 11.0001 24.0003 11C21.6005 11.0001 19.2644 11.5801 17.057 12.7238C15.0491 13.7643 14.0259 16.06 14.5916 18.2495L15.7278 22.6468C15.3017 22.5518 15.0115 22.582 14.8521 22.5761C12.7668 22.5761 11.3468 24.6901 12.1346 26.6166C13.1602 29.1248 14.9393 31.2261 17.258 32.6566L15.2475 35.3812C14.9145 35.8326 15.0104 36.4684 15.4618 36.8015C15.9161 37.1367 16.5513 37.0356 16.8821 36.5872L19.0912 33.5933C20.6315 34.23 22.2861 34.5605 23.9775 34.5605H24.0246C25.716 34.5605 27.3706 34.23 28.9109 33.5933L31.1199 36.5872C31.452 37.0373 32.0877 37.1353 32.5402 36.8015C32.9916 36.4684 33.0876 35.8326 32.7545 35.3812L30.7441 32.6566C33.0596 31.2281 34.8405 29.1283 35.8675 26.6166C36.2375 25.7117 36.133 24.6868 35.5879 23.875ZM17.9916 14.5274C19.9074 13.5346 21.929 13.0313 24.0018 13.0313C26.073 13.0313 28.0946 13.5346 30.0104 14.5273C31.1859 15.1365 31.7753 16.4581 31.4437 17.7415L29.6801 24.5671C28.2954 25.5942 26.207 26.3438 24.001 26.3438C21.7927 26.3438 19.7038 25.5921 18.3219 24.5671L16.5583 17.7414C16.2268 16.4581 16.8161 15.1364 17.9916 14.5274ZM33.9873 25.8478C32.3364 29.8853 28.4035 32.5293 24.0246 32.5293H23.9775C19.5895 32.5293 15.662 29.8765 14.0148 25.8478C13.7727 25.2557 14.2076 24.6074 14.8521 24.6074C14.9629 24.6263 15.4486 24.5051 15.8198 24.9744C17.1152 26.6123 20.2279 28.375 24.0011 28.375C27.7742 28.375 30.8869 26.6122 32.1823 24.9744C32.3668 24.7412 32.6324 24.6074 32.9109 24.6074C33.0176 24.6263 33.5614 24.5009 33.9014 25.0073C34.0711 25.2599 34.1024 25.5663 33.9873 25.8478Z" fill="white"/>
</svg>
