<svg width="48" height="48" viewBox="0 0 48 48" fill="none" xmlns="http://www.w3.org/2000/svg">
<circle cx="24" cy="24" r="24" fill="#FF961B"/>
<g clip-path="url(#clip0)">
<path d="M36.9693 12.941C36.913 11.9082 36.0916 11.0869 35.0588 11.0305C32.9748 10.9167 28.8969 11.0274 24.9975 13.0443C23.0097 14.0725 20.9073 15.8158 19.2296 17.8271C19.2089 17.8519 19.1888 17.8768 19.1683 17.9017L15.3607 18.1958C14.734 18.2442 14.1757 18.5727 13.8291 19.097L11.2314 23.0261C10.9685 23.4237 10.9267 23.9213 11.1196 24.3571C11.3124 24.793 11.7087 25.0968 12.1797 25.1698L15.3876 25.6666C15.3763 25.729 15.3649 25.7913 15.3545 25.8537C15.2477 26.4925 15.4594 27.1493 15.9208 27.6106L20.3891 32.079C20.7717 32.4616 21.2886 32.6725 21.8182 32.6725C21.9273 32.6725 22.037 32.6635 22.1462 32.6452C22.2085 32.6348 22.2708 32.6235 22.3332 32.6121L22.83 35.8201C22.903 36.2911 23.2068 36.6874 23.6426 36.8803C23.8239 36.9605 24.0158 37.0001 24.2069 37.0001C24.4751 37 24.7415 36.9219 24.9737 36.7684L28.9027 34.1707C29.4271 33.824 29.7555 33.2658 29.8039 32.6391L30.098 28.8316C30.1228 28.8111 30.1478 28.791 30.1726 28.7703C32.184 27.0925 33.9273 24.9902 34.9555 23.0023C36.9724 19.1028 37.083 15.0248 36.9693 12.941ZM28.0626 32.8999L24.3042 35.3847L23.82 32.2584C25.4084 31.7914 26.9797 31.0434 28.4767 30.0413L28.2851 32.5217C28.2732 32.6764 28.192 32.8143 28.0626 32.8999ZM21.4663 31.0018L16.9979 26.5334C16.8839 26.4194 16.8312 26.2592 16.8571 26.1048C16.9899 25.3105 17.1964 24.5543 17.4519 23.8419L24.1564 30.5465C23.3009 30.8529 22.5345 31.0357 21.8949 31.1427C21.7404 31.1684 21.5803 31.1158 21.4663 31.0018ZM15.4781 19.7147L17.9584 19.5231C16.9563 21.0201 16.2083 22.5914 15.7413 24.1799L12.615 23.6957L15.0999 19.9372C15.1855 19.8077 15.3234 19.7267 15.4781 19.7147ZM29.1969 27.6003C27.9663 28.6268 26.7718 29.3692 25.6707 29.9064L18.0931 22.3288C18.7968 20.8915 19.6557 19.6946 20.3994 18.803C21.9521 16.9416 23.8831 15.3358 25.6975 14.3974C29.2762 12.5463 33.0468 12.4466 34.9759 12.5516C35.2312 12.5655 35.4343 12.7686 35.4482 13.024C35.5534 14.9531 35.4535 18.7236 33.6024 22.3024C32.664 24.1167 31.0582 26.0477 29.1969 27.6003Z" fill="white"/>
<path d="M28.81 22.9971C29.7851 22.997 30.7606 22.6258 31.5029 21.8835C32.2223 21.1641 32.6184 20.2077 32.6184 19.1905C32.6184 18.1732 32.2223 17.2168 31.5029 16.4975C30.018 15.0125 27.6018 15.0126 26.117 16.4975C25.3976 17.2168 25.0015 18.1732 25.0015 19.1905C25.0015 20.2077 25.3977 21.1641 26.117 21.8835C26.8595 22.626 27.8345 22.9972 28.81 22.9971ZM27.1941 17.5747C27.6396 17.1292 28.2247 16.9064 28.8099 16.9064C29.3951 16.9064 29.9802 17.1292 30.4257 17.5747C30.8573 18.0063 31.0949 18.5801 31.0949 19.1904C31.0949 19.8008 30.8573 20.3746 30.4257 20.8062C29.5348 21.6972 28.085 21.6971 27.194 20.8062C26.7625 20.3746 26.5248 19.8008 26.5248 19.1905C26.5248 18.5801 26.7625 18.0063 27.1941 17.5747Z" fill="white"/>
<path d="M11.7771 32.4264C11.972 32.4264 12.167 32.3521 12.3157 32.2033L14.8026 29.7163C15.1 29.4189 15.1 28.9366 14.8026 28.6391C14.5051 28.3416 14.0228 28.3416 13.7253 28.6391L11.2385 31.126C10.941 31.4235 10.941 31.9058 11.2385 32.2033C11.3872 32.352 11.5821 32.4264 11.7771 32.4264Z" fill="white"/>
<path d="M17.0816 30.9184C16.7842 30.6209 16.3018 30.6209 16.0044 30.9184L11.2231 35.6997C10.9256 35.9972 10.9256 36.4795 11.2231 36.777C11.3718 36.9257 11.5667 37 11.7617 37C11.9566 37 12.1516 36.9257 12.3003 36.7769L17.0815 31.9956C17.3791 31.6982 17.3791 31.2159 17.0816 30.9184Z" fill="white"/>
<path d="M18.2835 33.1977L15.7966 35.6846C15.4991 35.9821 15.4991 36.4644 15.7966 36.7619C15.9453 36.9106 16.1403 36.985 16.3352 36.985C16.5301 36.985 16.7251 36.9106 16.8738 36.7619L19.3607 34.2749C19.6581 33.9775 19.6581 33.4952 19.3607 33.1977C19.0632 32.9002 18.5809 32.9002 18.2835 33.1977Z" fill="white"/>
</g>
<defs>
<clipPath id="clip0">
<rect width="26" height="26" fill="white" transform="translate(11 11)"/>
</clipPath>
</defs>
</svg>
