<svg width="40" height="45" viewBox="0 0 40 45" fill="none" xmlns="http://www.w3.org/2000/svg">
<path d="M39.1447 25.8459C39.1447 25.9503 39.1447 26.0547 39.1269 26.1441C39.1269 26.1829 39.1269 26.2187 39.1269 26.2575C39.1269 26.3946 39.1151 26.5318 39.0914 26.669C39.0928 26.6849 39.0928 26.7008 39.0914 26.7167C39.0914 26.839 39.0647 26.9612 39.0499 27.0805L39.0321 27.1938C39.0321 27.3042 38.9995 27.4145 38.9817 27.5219C38.9817 27.5487 38.9817 27.5755 38.9817 27.6024C38.958 27.7396 38.9313 27.8767 38.9016 28.0109V28.0646L38.8216 28.4195C38.8216 28.4493 38.8068 28.4791 38.7979 28.506C38.7683 28.6312 38.7357 28.7565 38.703 28.8787V28.9026C38.6655 29.0398 38.624 29.1769 38.5785 29.3141V29.3499L38.4541 29.7167L38.4363 29.7674C38.3414 30.0388 38.2377 30.3042 38.1399 30.5666C37.1364 32.9062 35.4879 34.9079 33.3894 36.3347C31.2908 37.7616 28.8301 38.554 26.298 38.6183H25.4918H25.2428H25.1361L24.9108 38.6034C24.8723 38.6034 24.8367 38.6034 24.7982 38.6034L24.5818 38.5855H24.4721L24.2528 38.5587L24.1461 38.5437L23.9267 38.5139H23.823L23.6036 38.4752L23.5088 38.4573L23.2805 38.4155L23.1916 38.3976L22.9604 38.3469L22.8833 38.326L22.6432 38.2694L22.5721 38.2515L22.329 38.1859L22.2668 38.165L22.0178 38.0934L21.9644 38.0755L21.7095 37.9921H21.6651L21.4012 37.8996H21.3686L21.0959 37.7982H21.0752C20.9833 37.7594 20.8884 37.7237 20.7966 37.6819L20.5001 37.5567C19.0514 36.9027 17.7304 35.9938 16.5993 34.8728C14.5816 34.231 12.8217 32.9552 11.578 31.2328C10.3344 29.5103 9.67258 27.432 9.68984 25.3032C9.68984 25.169 9.68984 25.0348 9.68984 24.9006V24.7724C9.68984 24.6809 9.69577 24.5915 9.70763 24.504C9.70763 24.4503 9.70763 24.3996 9.70763 24.3489L9.7343 24.1044C9.7343 24.0537 9.7343 24 9.75505 23.9493C9.7758 23.8986 9.7758 23.7883 9.79062 23.7107C9.80544 23.6332 9.80544 23.6093 9.81434 23.5586C9.82323 23.508 9.84694 23.3917 9.86176 23.3082L9.88844 23.174C9.91512 23.0487 9.94476 22.9264 9.97736 22.8042C9.97736 22.7744 9.97737 22.7475 10.0011 22.7177C10.0248 22.6223 10.0515 22.5298 10.0811 22.4195C10.1108 22.3091 10.1108 22.3181 10.1285 22.2674C10.1463 22.2167 10.173 22.1272 10.1967 22.0586C10.2204 21.9901 10.2352 21.9453 10.256 21.8917C10.2767 21.838 10.3005 21.7634 10.3271 21.7008L10.3923 21.5308L10.4694 21.3519C10.4931 21.2952 10.5168 21.2356 10.5435 21.1789C10.5702 21.1223 10.5939 21.0686 10.6206 21.0149L10.7065 20.836L10.7688 20.7137C10.837 20.5825 10.9081 20.4513 10.9822 20.3231L11.0474 20.2097C11.086 20.1441 11.1275 20.0785 11.169 20.0129L11.2401 19.8966L11.3705 19.6998L11.4417 19.5954L11.5839 19.3986L11.6492 19.3091L11.8092 19.1004L11.8478 19.0557C12.0226 18.838 12.2064 18.6262 12.3961 18.4264C12.4999 18.3161 12.6066 18.2087 12.7133 18.1044L12.7489 18.0716L12.9682 17.8688L13.0097 17.833C13.0838 17.7644 13.1609 17.6988 13.2379 17.6332L13.2646 17.6123C13.6966 17.2527 14.1588 16.9314 14.6459 16.6521C14.7408 16.5984 14.8356 16.5447 14.9423 16.494H14.9631L15.2595 16.3449C15.692 16.1315 16.1399 15.951 16.5993 15.8052C16.7534 15.7575 16.9105 15.7097 17.0676 15.668C18.8037 15.2097 20.631 15.2348 22.3539 15.7406C24.0769 16.2465 25.6308 17.214 26.8494 18.5398C27.4215 18.6918 28.0113 18.8678 28.6279 19.0795C28.6279 19.0795 31.8558 17.1113 33.163 15.2028C33.163 15.2028 30.2433 13.7117 27.6438 12.0865C27.3236 11.8867 27.0094 11.6869 26.7071 11.4901C26.7071 11.4901 25.6281 9.75149 25.4799 8.13817C25.0802 8.086 24.6842 8.0083 24.2943 7.90557C22.7353 7.48799 21.3099 6.67238 20.1563 5.53777C19.4923 4.89097 18.9279 4.14822 18.4815 3.334C17.9151 2.3015 17.549 1.17008 17.4026 0L17.287 0.0357853C17.0676 0.11332 16.872 0.190855 16.6942 0.265408C16.4134 0.394368 16.1393 0.537696 15.8731 0.694831C15.7723 0.760437 15.6745 0.826044 15.5767 0.897614C15.4788 0.969185 15.3662 1.05865 15.2802 1.14513C15.1104 1.29065 14.9481 1.44494 14.7941 1.60736C13.9318 2.52368 13.3915 3.69886 13.2557 4.95328L13.3802 4.89364L13.2557 4.95328L12.8763 5.13221L12.5443 5.29324L12.0849 5.52585L11.7885 5.6839L11.2638 5.96421L11.003 6.10437C10.7451 6.24751 10.4872 6.40259 10.2293 6.54573C9.84793 6.79423 9.47247 7.05268 9.10294 7.32107C8.69388 7.62525 8.29866 7.94235 7.91727 8.27237C7.26353 8.82326 6.642 9.41172 6.05578 10.0348C2.16708 14.1556 -0.000655574 19.6211 1.4872e-07 25.3032C1.4872e-07 25.6014 1.47968e-07 25.8996 0.0207493 26.1978C0.138671 31.4178 2.31291 36.3768 6.06515 39.984C9.8174 43.5912 14.8403 45.551 20.0288 45.4324C25.2174 45.3138 30.1466 43.1264 33.7321 39.3514C37.3175 35.5764 39.2656 30.5231 39.1477 25.3032C39.1477 25.4433 39.1477 25.5805 39.1477 25.7207C39.1477 25.7624 39.1447 25.8042 39.1447 25.8459ZM24.8367 11.6481C24.8367 11.6481 22.9693 11.9284 23.2331 9.96322C23.2331 9.96322 24.3328 10.0497 24.8367 11.6481Z" fill="#FBE04C"/>
<path d="M19.578 15.3548C18.7288 15.3544 17.883 15.4636 17.0614 15.6798C16.9043 15.7216 16.7472 15.7693 16.5931 15.817C16.1452 15.9596 15.7083 16.135 15.2859 16.3419L14.9895 16.491H14.9687C14.8709 16.5417 14.7761 16.5954 14.6723 16.649C14.1852 16.9283 13.723 17.2496 13.291 17.6093L13.2644 17.6301C13.1873 17.6958 13.1102 17.7614 13.0361 17.8299L12.9946 17.8657L12.7753 18.0685L12.7397 18.1013C12.633 18.2057 12.5263 18.313 12.4225 18.4234C12.2328 18.6232 12.049 18.8349 11.8742 19.0526L11.8356 19.0973L11.6756 19.3061L11.6104 19.3956L11.4681 19.5924L11.3969 19.6967L11.2665 19.8936L11.1954 20.0099C11.1539 20.0755 11.1124 20.1411 11.0738 20.2067L11.0086 20.32C10.9345 20.4482 10.8634 20.5794 10.7952 20.7107L10.733 20.8329L10.647 21.0119C10.6203 21.0655 10.5966 21.1192 10.5699 21.1759C10.5433 21.2325 10.5195 21.2922 10.4958 21.3488L10.4188 21.5278L10.3535 21.6977C10.3269 21.7604 10.3061 21.826 10.2824 21.8886C10.2587 21.9512 10.2409 21.9989 10.2231 22.0556C10.2053 22.1123 10.1757 22.1928 10.1549 22.2643C10.1342 22.3359 10.1223 22.3657 10.1075 22.4164C10.0927 22.4671 10.0512 22.6043 10.0275 22.7146C10.0275 22.7445 10.0097 22.7713 10.0038 22.8011C9.97117 22.9234 9.94153 23.0457 9.91485 23.1709L9.88817 23.3051C9.88817 23.3886 9.85557 23.4721 9.84075 23.5556C9.82593 23.6391 9.82296 23.657 9.81703 23.7077C9.81111 23.7584 9.79036 23.8657 9.78146 23.9463C9.77257 24.0268 9.78146 24.0506 9.76071 24.1013L9.73404 24.3459C9.73404 24.3965 9.73404 24.4472 9.73404 24.5009C9.73404 24.5546 9.73404 24.6769 9.71625 24.7693V24.8975C9.71625 25.0317 9.71625 25.1659 9.71625 25.3001C9.7143 27.4119 10.3801 29.4695 11.6175 31.1754C12.8548 32.8812 14.5994 34.1469 16.599 34.7892C14.2392 32.4567 12.8346 29.3187 12.6626 25.995C12.6626 25.8011 12.6626 25.6073 12.6626 25.3985C12.6626 25.3628 12.6626 25.327 12.6626 25.2912C12.6617 23.5162 13.3375 21.8085 14.5508 20.5198C14.7298 20.3299 14.9188 20.1497 15.117 19.98C15.2385 19.8757 15.363 19.7773 15.4904 19.6818C15.6179 19.5864 15.7246 19.5178 15.8432 19.4403C15.9254 19.3841 16.0104 19.3323 16.0981 19.2852C16.4472 19.0769 16.8131 18.8983 17.1919 18.7514C17.3361 18.6918 17.4814 18.6351 17.6276 18.5814L17.8618 18.4979L17.9863 18.4562L18.2827 18.3637C18.3835 18.3339 18.4813 18.3041 18.5791 18.2802H18.5969C18.7273 18.2445 18.8607 18.2117 18.9911 18.1818H19.0326C19.1956 18.1461 19.3587 18.1162 19.5187 18.0894H19.5691C19.7262 18.0626 19.8863 18.0387 20.0434 18.0178H20.1175L20.6036 17.9731H20.651C20.8141 17.9731 20.9741 17.9552 21.1342 17.9522H21.8071C23.4959 17.9366 25.179 18.1513 26.8106 18.5904C25.8921 17.5783 24.7754 16.7684 23.5307 16.2115C22.286 15.6547 20.9402 15.363 19.578 15.3548Z" fill="#FF961B"/>
<path d="M32.9865 10.9502C31.76 9.78281 30.3927 8.77493 28.9167 7.95015C26.231 6.45219 23.2272 5.62482 20.1576 5.53763C21.3149 6.67292 22.7445 7.4876 24.3074 7.90244C24.6973 8.00518 25.0934 8.08287 25.4931 8.13504C25.6413 9.74836 26.7202 11.4869 26.7202 11.4869C27.0167 11.6838 27.3368 11.8836 27.6569 12.0834C30.2357 13.6967 33.1495 15.2086 33.1495 15.2086C31.8423 17.1321 28.6143 19.0853 28.6143 19.0853C28.0008 18.8736 27.4109 18.6977 26.8359 18.5456C26.9426 18.6629 27.0414 18.7822 27.1323 18.9034C27.236 19.0257 27.3398 19.1539 27.4287 19.2822C28.7002 20.9652 29.406 23.0119 29.4436 25.1256C29.4813 27.2392 28.8489 29.3101 27.6381 31.0379C26.4274 32.7657 24.7011 34.0607 22.7097 34.7351C20.7182 35.4096 18.5649 35.4285 16.5621 34.7891C17.6915 35.9108 19.0117 36.8198 20.4599 37.473L20.7564 37.5983C20.8482 37.64 20.9431 37.6758 21.035 37.7146H21.0557L21.3284 37.8159H21.361L21.6249 37.9084H21.6693L21.9242 37.9919L21.9776 38.0098L22.2266 38.0814L22.2888 38.1022L22.5319 38.1678L22.603 38.1857L22.8431 38.2424L22.9202 38.2633L23.1514 38.314L23.2403 38.3319L23.4686 38.3736L23.5634 38.3915L23.7828 38.4303H23.8865L24.1059 38.4601L24.2126 38.475L24.4319 38.5018H24.5416L24.758 38.5197C24.7965 38.5197 24.8321 38.5197 24.8706 38.5197L25.0959 38.5346H25.2026H25.4516H26.2341C26.9867 38.5136 27.7362 38.4298 28.475 38.2841L28.6944 38.2394C29.0353 38.1649 29.3732 38.0784 29.7052 37.977C29.8208 37.9442 29.9364 37.9054 30.052 37.8666C30.3128 37.7802 30.5707 37.6877 30.8256 37.5833C30.9946 37.5148 31.1606 37.4432 31.3266 37.3686C31.6823 37.2076 32.032 37.0317 32.3699 36.8408C34.9119 35.4077 36.9163 33.1753 38.0759 30.4859C38.1886 30.2235 38.2923 29.9581 38.3724 29.6867L38.3901 29.636L38.5146 29.2692V29.2334C38.5581 29.0963 38.5996 28.9591 38.6391 28.8219V28.7981C38.6717 28.6758 38.7043 28.5505 38.734 28.4253C38.734 28.3985 38.7488 28.3686 38.7577 28.3388L38.8377 27.9839V27.9303C38.8674 27.7961 38.8941 27.6589 38.9178 27.5217C38.9178 27.4949 38.9178 27.468 38.9178 27.4412C38.9356 27.3338 38.9533 27.2235 38.9682 27.1132L38.9859 26.9998C39.0008 26.8806 39.0156 26.7583 39.0274 26.636C39.0289 26.6202 39.0289 26.6042 39.0274 26.5883C39.0413 26.4511 39.0531 26.314 39.063 26.1768C39.063 26.138 39.063 26.1022 39.063 26.0635C39.063 25.9591 39.063 25.8547 39.0808 25.7653C39.0808 25.7235 39.0808 25.6818 39.0808 25.643C39.0808 25.5038 39.0808 25.3637 39.0808 25.2225C39.0823 22.5518 38.5426 19.9087 37.4948 17.4548C36.447 15.0009 34.913 12.7877 32.9865 10.9502Z" fill="#FF961B"/>
<path d="M27.4552 19.2884C27.3574 19.1601 27.2536 19.0319 27.1588 18.9096C27.0639 18.7874 26.9542 18.6681 26.8623 18.5518C25.2308 18.1127 23.5477 17.898 21.8588 17.9136C21.927 17.9136 21.9922 17.9136 22.0604 17.9136H21.7343H21.1623C21.0022 17.9136 20.8421 17.9136 20.6791 17.9345H20.6317L20.1574 17.9792H20.0833C19.9262 18.0001 19.7661 18.0239 19.609 18.0508H19.5586C19.3986 18.0776 19.2356 18.1074 19.0725 18.1432H19.031C18.9006 18.173 18.7672 18.2058 18.6368 18.2416H18.619C18.5182 18.2655 18.4204 18.2953 18.3226 18.3251L18.0262 18.4176L17.9017 18.4593L17.6675 18.5428C17.5213 18.5965 17.376 18.6532 17.2318 18.7128C16.8524 18.8557 16.4855 19.0303 16.135 19.2347C16.301 19.1422 16.5441 19.017 16.8642 18.8768C17.0688 18.7874 17.3029 18.6949 17.5667 18.6025C17.7878 18.5336 18.0124 18.4768 18.2396 18.4325L18.3256 18.4146L18.4856 18.3878L18.6101 18.3669L18.7554 18.349L18.9006 18.3311H19.034H19.2089H19.3186H19.5972C20.9526 18.3341 22.2775 18.7367 23.4079 19.4892C24.5383 20.2417 25.4247 21.311 25.9574 22.5649C26.4901 23.8189 26.6458 25.2024 26.4052 26.5444C26.1646 27.8864 25.5382 29.128 24.6036 30.1157C23.669 31.1034 22.4671 31.7938 21.1466 32.1015C19.8261 32.4092 18.4449 32.3207 17.1739 31.8471C15.9028 31.3734 14.7976 30.5353 13.995 29.4364C13.1924 28.3375 12.7276 27.026 12.6581 25.6641C12.7461 29.1051 14.1597 32.3771 16.6004 34.7894C18.6033 35.4288 20.7565 35.4099 22.748 34.7354C24.7395 34.0609 26.4657 32.7659 27.6765 31.0381C28.8873 29.3103 29.5197 27.2395 29.482 25.1258C29.4443 23.0121 28.7386 20.9654 27.467 19.2824L27.4552 19.2884Z" fill="#1A1A1A"/>
<path d="M19.861 22.6373C19.9055 22.5895 19.953 22.5447 20.0032 22.5031L20.0922 22.4315L20.1574 22.3659C20.2374 22.3182 20.3174 22.2794 20.3975 22.2406L20.516 22.1929C20.2114 22.1061 19.896 22.0639 19.5794 22.0677H19.3956H19.3126H19.2503H19.1822H19.114H19.0577H18.9836H18.9421C18.8418 22.0888 18.7428 22.1156 18.6457 22.1482C18.5212 22.1929 18.4115 22.2347 18.3166 22.2764C18.1655 22.348 18.0202 22.4255 17.8572 22.515L17.6942 22.6283L17.5193 22.7685C17.4244 22.8485 17.3343 22.9341 17.2495 23.0249C16.6803 23.6242 16.362 24.4207 16.3603 25.2496C16.3603 25.3062 16.3603 25.3629 16.3603 25.4196C16.3816 25.8803 16.5002 26.3312 16.7082 26.7422C16.9162 27.1532 17.2088 27.5149 17.5666 27.8033C17.9244 28.0916 18.3391 28.3 18.7832 28.4145C19.2273 28.5291 19.6905 28.5471 20.1421 28.4675C20.5936 28.3879 21.0232 28.2124 21.4021 27.9527C21.7809 27.6931 22.1005 27.3552 22.3395 26.9616C22.5785 26.568 22.7314 26.1277 22.788 25.67C22.8447 25.2123 22.8038 24.7478 22.668 24.3072C22.5328 24.669 22.2788 24.9735 21.9481 25.1703C21.6174 25.3671 21.2299 25.4444 20.8496 25.3895C20.4693 25.3345 20.119 25.1506 19.8568 24.8681C19.5945 24.5856 19.436 24.2215 19.4074 23.8361C19.4074 23.8062 19.4074 23.7764 19.4074 23.7496C19.4183 23.3355 19.5797 22.9398 19.861 22.6373Z" fill="#1A1A1A"/>
<path d="M24.8373 11.6482C24.3334 10.0498 23.2337 9.96332 23.2337 9.96332C22.9699 11.9285 24.8373 11.6482 24.8373 11.6482Z" fill="white"/>
<path d="M24.8702 20.8003C24.2201 20.026 23.4099 19.4038 22.496 18.9773C21.5821 18.5508 20.5866 18.3303 19.5792 18.3311H19.3005H19.1909H19.016H18.8826L18.7373 18.349L18.5921 18.3669L18.4676 18.3877L18.3075 18.4146L18.2216 18.4325C17.9944 18.4768 17.7698 18.5336 17.5487 18.6025C17.2849 18.6949 17.0507 18.7873 16.8462 18.8768C16.5172 19.0289 16.1882 19.1989 15.8591 19.3927C15.7406 19.4703 15.622 19.5508 15.5064 19.6343C15.3908 19.7178 15.2545 19.8281 15.1329 19.9325C14.9253 20.1052 14.7274 20.2894 14.5401 20.4842C13.3268 21.7728 12.651 23.4806 12.6519 25.2555C12.6519 25.2913 12.6519 25.3271 12.6519 25.3629V25.6164C12.7022 26.7235 13.0141 27.8026 13.5618 28.7643C14.1094 29.7259 14.8771 30.5423 15.801 31.1458C16.725 31.7494 17.7786 32.1226 18.8746 32.2346C19.9706 32.3466 21.0773 32.1941 22.103 31.7898C23.1287 31.3855 24.0439 30.741 24.7725 29.9098C25.5012 29.0786 26.0224 28.0846 26.2929 27.0102C26.5634 25.9359 26.5755 24.8121 26.3281 23.7322C26.0806 22.6522 25.5809 21.6471 24.8702 20.8003ZM19.5792 28.5538C18.7519 28.5541 17.9561 28.2345 17.3564 27.6611C16.7567 27.0878 16.3989 26.3045 16.3571 25.4732C16.3571 25.4166 16.3571 25.3599 16.3571 25.3033C16.3588 24.4744 16.6772 23.6779 17.2464 23.0786C17.3311 22.9878 17.4212 22.9022 17.5161 22.8221L17.691 22.682L17.854 22.5687C18.0082 22.4792 18.1504 22.4017 18.3135 22.3301C18.4083 22.2883 18.518 22.2466 18.6425 22.2019C18.7397 22.1693 18.8386 22.1424 18.9389 22.1213H18.9804H19.0545H19.1108H19.179H19.2472H19.3094H19.3924H19.5762C19.8955 22.1219 20.213 22.1691 20.5188 22.2615L20.4002 22.3092C20.3202 22.348 20.2402 22.3868 20.1601 22.4345L20.0742 22.4941L19.9853 22.5657C19.935 22.6073 19.8875 22.6521 19.843 22.6999C19.5472 23.0151 19.3827 23.4324 19.3835 23.8659C19.3835 23.8927 19.3835 23.9225 19.3835 23.9524C19.4121 24.3378 19.5706 24.7019 19.8329 24.9844C20.0951 25.2669 20.4454 25.4508 20.8257 25.5058C21.206 25.5607 21.5935 25.4834 21.9242 25.2866C22.2549 25.0898 22.5089 24.7853 22.6441 24.4235C22.7894 24.9077 22.8201 25.4193 22.7335 25.9175C22.647 26.4157 22.4457 26.8865 22.1457 27.2923C21.8458 27.6982 21.4555 28.0277 21.0062 28.2545C20.5569 28.4813 20.0611 28.5991 19.5584 28.5985L19.5792 28.5538Z" fill="white"/>
</svg>
