<svg width="42" height="42" viewBox="0 0 42 42" fill="none" xmlns="http://www.w3.org/2000/svg">
<path d="M20.999 28.8743C23.0867 28.8721 25.0883 28.0418 26.5646 26.5658C28.0409 25.0897 28.8715 23.0882 28.874 21.0005V10.4993C28.874 8.41069 28.0443 6.40765 26.5675 4.9308C25.0906 3.45395 23.0876 2.62427 20.999 2.62427C18.9104 2.62427 16.9074 3.45395 15.4306 4.9308C13.9537 6.40765 13.124 8.41069 13.124 10.4993V20.9993C13.1263 23.0871 13.9567 25.0889 15.4331 26.5652C16.9094 28.0416 18.9111 28.872 20.999 28.8743Z" fill="#E95E5E"/>
<path d="M32.8832 21.0083C32.5378 20.9737 32.1926 21.0759 31.9218 21.293C31.6509 21.5102 31.4761 21.8249 31.4349 22.1696C31.1467 24.7359 29.9232 27.106 27.9979 28.8271C26.0727 30.5482 23.5808 31.4995 20.9984 31.4994C18.416 31.4992 15.9242 30.5475 13.9992 28.8262C12.0741 27.1049 10.8508 24.7346 10.563 22.1683C10.5207 21.8242 10.3455 21.5103 10.0749 21.2936C9.80429 21.0769 9.4597 20.9745 9.11467 21.0083C8.76853 21.0468 8.45182 21.2211 8.23408 21.4929C8.01635 21.7647 7.9154 22.1118 7.95341 22.458C8.28752 25.4364 9.6359 28.2092 11.7723 30.3112C13.9087 32.4132 16.703 33.7164 19.6864 34.0021V38.0619C19.6864 38.41 19.8247 38.7438 20.0709 38.99C20.317 39.2361 20.6509 39.3744 20.9989 39.3744C21.347 39.3744 21.6809 39.2361 21.927 38.99C22.1732 38.7438 22.3114 38.41 22.3114 38.0619V34.0023C25.2953 33.7172 28.0903 32.414 30.2268 30.3116C32.3634 28.2092 33.7114 25.4356 34.0445 22.4567C34.0825 22.1107 33.9815 21.7637 33.7637 21.4921C33.546 21.2205 33.2292 21.0465 32.8832 21.0083Z" fill="#E95E5E"/>
</svg>
