<svg width="70" height="57" viewBox="0 0 70 57" fill="none" xmlns="http://www.w3.org/2000/svg">
<path d="M50.4759 42.1335C50.7375 42.2216 51.0212 42.081 51.1093 41.8193C51.1975 41.5576 51.0568 41.274 50.7951 41.1858L50.4759 42.1335ZM32.3755 45.5824C32.1185 45.4814 31.8283 45.6079 31.7273 45.8649C31.6263 46.1219 31.7527 46.4121 32.0098 46.5131L32.3755 45.5824ZM50.7951 41.1858C48.4639 40.4005 45.1171 39.5546 42.7394 39.6377C42.1394 39.6586 41.5757 39.7392 41.0946 39.9092C40.6126 40.0796 40.1827 40.3514 39.9033 40.7735C39.3299 41.64 39.5614 42.8333 40.4006 44.2681L41.2638 43.7632C40.4544 42.3794 40.5069 41.6734 40.7373 41.3254C40.8598 41.1402 41.0774 40.9759 41.4279 40.852C41.7793 40.7278 42.2329 40.656 42.7743 40.637C44.9622 40.5606 48.1655 41.3552 50.4759 42.1335L50.7951 41.1858ZM40.4006 44.2681C40.7974 44.9465 41.0096 45.4793 41.0919 45.8885C41.1734 46.294 41.1217 46.5453 41.0337 46.7048C40.9463 46.863 40.7835 47.0028 40.498 47.1068C40.2077 47.2126 39.8194 47.2696 39.3409 47.2725C37.4028 47.2842 34.4948 46.4152 32.3755 45.5824L32.0098 46.5131C34.1441 47.3518 37.2045 48.2854 39.347 48.2725C39.8887 48.2692 40.4026 48.2059 40.8402 48.0464C41.2826 47.8853 41.6734 47.6152 41.9092 47.188C42.1442 46.7622 42.1851 46.2527 42.0723 45.6915C41.9602 45.134 41.6913 44.4941 41.2638 43.7632L40.4006 44.2681Z" fill="#C1C4CA"/>
<path d="M26.1466 36.9506C24.7985 36.443 23.5638 37.3339 23.1149 37.8427L25.8312 40.3564L26.1466 36.9506Z" fill="#C1C4CA"/>
<path d="M11.813 10.757L10.9691 8.04453C12.8387 3.81304 17.6881 4.00885 19.8792 4.63569L20.7444 8.42505C17.3307 7.22876 13.4621 9.40753 11.813 10.757Z" fill="#C1C4CA"/>
<path d="M19.8792 4.63574L27.2601 29.124L25.7622 40.5016" stroke="#C1C4CA" stroke-linecap="round"/>
<path d="M19.8792 4.63584C17.704 3.6017 13.4059 3.44282 10.962 7.68571" stroke="#C1C4CA" stroke-linecap="round"/>
<path d="M11.0381 7.89966L17.7843 32.9751L25.7622 40.5016" stroke="#C1C4CA" stroke-linecap="round"/>
<path d="M17.9293 33.0438C19.1663 31.4392 22.5408 28.7292 26.6943 29.5661" stroke="#C1C4CA" stroke-linecap="round"/>
<path fill-rule="evenodd" clip-rule="evenodd" d="M55.1074 37.9136C54.2771 36.0088 51.731 29.6329 53.294 26.3452C55.1452 22.4515 58.9315 21.0691 62.7598 22.8892C66.5882 24.7093 67.5977 29.1674 66.0551 32.4121C64.7462 35.1651 57.9557 37.6031 55.9277 38.2787C55.5969 38.389 55.2466 38.233 55.1074 37.9136ZM62.2128 29.5246C61.6448 30.7192 60.2321 31.235 59.0575 30.6765C57.8829 30.1181 57.3911 28.6969 57.9591 27.5022C58.5271 26.3076 59.9398 25.7918 61.1144 26.3502C62.289 26.9087 62.7807 28.3299 62.2128 29.5246Z" fill="#C1C4CA"/>
</svg>
