<svg width="48" height="48" viewBox="0 0 48 48" fill="none" xmlns="http://www.w3.org/2000/svg">
<circle cx="24" cy="24" r="24" fill="#FF961B"/>
<g clip-path="url(#clip0)">
<path d="M23.9409 11.0078C23.5205 11.0078 23.1797 11.3487 23.1797 11.769V36.2299C23.1797 36.6504 23.5205 36.9912 23.9409 36.9912C24.3613 36.9912 24.7021 36.6503 24.7021 36.2299V11.7691C24.7022 11.3487 24.3613 11.0078 23.9409 11.0078Z" fill="white"/>
<path d="M36.8643 24.7484L35.1193 19.9013C34.8916 19.0308 34.3656 18.3025 33.6677 17.814C34.2407 17.2599 34.5981 16.4842 34.5981 15.626C34.5981 13.947 33.2322 12.5811 31.5532 12.5811C29.8742 12.5811 28.5082 13.947 28.5082 15.626C28.5082 16.4842 28.8657 17.2599 29.4387 17.814C28.7408 18.3025 28.2148 19.0309 27.9871 19.9013L26.2421 24.7484C25.7971 25.9844 26.4853 27.3415 27.747 27.7129V33.1344C27.747 34.3936 28.7714 35.418 30.0307 35.418C30.615 35.418 31.1488 35.1974 31.5531 34.8351C31.9574 35.1974 32.4912 35.418 33.0756 35.418C34.3348 35.418 35.3593 34.3936 35.3593 33.1344V27.7129C36.6195 27.342 37.3097 25.9858 36.8643 24.7484ZM31.5532 14.1035C32.3927 14.1035 33.0757 14.7865 33.0757 15.626C33.0757 16.4655 32.3927 17.1485 31.5532 17.1485C30.7137 17.1485 30.0308 16.4655 30.0308 15.626C30.0308 14.7865 30.7137 14.1035 31.5532 14.1035ZM34.7156 26.2832H34.5981C34.1777 26.2832 33.8369 26.6241 33.8369 27.0444V33.1343C33.8369 33.554 33.4954 33.8955 33.0757 33.8955C32.6559 33.8955 32.3145 33.554 32.3145 33.1343V28.5668C32.3145 28.1464 31.9736 27.8056 31.5533 27.8056C31.1329 27.8056 30.7921 28.1465 30.7921 28.5668V33.1343C30.7921 33.554 30.4506 33.8955 30.0309 33.8955C29.6111 33.8955 29.2696 33.554 29.2696 33.1343V27.0445C29.2696 26.6241 28.9288 26.2833 28.5084 26.2833H28.391C27.8644 26.2833 27.4963 25.7598 27.6748 25.2642C29.5568 20.0367 29.4405 20.365 29.4543 20.3098C29.6955 19.3449 30.5587 18.6709 31.5534 18.6709C32.5481 18.6709 33.4113 19.3449 33.6525 20.3098C33.6663 20.3649 33.5506 20.0381 35.4321 25.2642C35.6102 25.7596 35.2423 26.2832 34.7156 26.2832Z" fill="white"/>
<path d="M18.596 17.6556C19.079 17.1165 19.3735 16.4051 19.3735 15.626C19.3735 13.947 18.0076 12.5811 16.3286 12.5811C14.6496 12.5811 13.2837 13.947 13.2837 15.6259C13.2837 16.4051 13.5782 17.1165 14.0612 17.6556C12.2538 18.509 11 20.3492 11 22.4771V25.522C11 26.5145 11.6363 27.361 12.5225 27.6752V33.1343C12.5225 34.3935 13.5469 35.4179 14.8062 35.4179C15.3905 35.4179 15.9243 35.1973 16.3286 34.835C16.7329 35.1973 17.2667 35.4179 17.8511 35.4179C19.1103 35.4179 20.1348 34.3935 20.1348 33.1343V27.6752C21.0209 27.361 21.6573 26.5145 21.6573 25.5219V22.477C21.6573 20.3492 20.4035 18.509 18.596 17.6556ZM16.3286 14.1035C17.1681 14.1035 17.8511 14.7865 17.8511 15.626C17.8511 16.4655 17.1681 17.1485 16.3286 17.1485C15.4891 17.1485 14.8062 16.4655 14.8062 15.626C14.8062 14.7865 15.4892 14.1035 16.3286 14.1035ZM20.1348 25.522C20.1348 25.9418 19.7933 26.2832 19.3736 26.2832C18.9532 26.2832 18.6124 26.6241 18.6124 27.0444V33.1343C18.6124 33.554 18.2709 33.8955 17.8512 33.8955C17.4314 33.8955 17.0899 33.554 17.0899 33.1343V28.5668C17.0899 28.1464 16.7491 27.8056 16.3287 27.8056C15.9084 27.8056 15.5675 28.1465 15.5675 28.5668V33.1343C15.5675 33.554 15.226 33.8955 14.8063 33.8955C14.3866 33.8955 14.0451 33.554 14.0451 33.1343V27.0445C14.0451 26.6241 13.7043 26.2833 13.2839 26.2833C12.8641 26.2833 12.5227 25.9418 12.5227 25.522V22.4771C12.5227 20.3784 14.2301 18.6709 16.3288 18.6709C18.4275 18.6709 20.135 20.3784 20.135 22.4771V25.522H20.1348Z" fill="white"/>
</g>
<defs>
<clipPath id="clip0">
<rect width="26" height="26" fill="white" transform="translate(11 11)"/>
</clipPath>
</defs>
</svg>
