<svg width="48" height="48" viewBox="0 0 48 48" fill="none" xmlns="http://www.w3.org/2000/svg">
<circle cx="24" cy="24" r="24" fill="#FF961B"/>
<path d="M33.6485 12.1421L33.6485 12.1421L33.647 12.1405C33.4633 11.9549 33.205 11.85 32.9375 11.85H15.0625C14.7949 11.85 14.5366 11.9549 14.353 12.1405L14.353 12.1405L14.3514 12.1421C14.1704 12.3305 14.0762 12.5821 14.1041 12.841L14.1041 12.8412L16.5416 35.3412L16.5416 35.3414C16.5933 35.8108 17.0156 36.15 17.5 36.15H30.5C30.9843 36.15 31.4067 35.8108 31.4583 35.3414L31.4583 35.3412L33.1774 19.4699C33.1774 19.4697 33.1775 19.4694 33.1775 19.4691C33.1789 19.4572 33.1804 19.4465 33.182 19.4346L33.182 19.4346L33.1825 19.4306L33.8958 12.8426L33.8959 12.8424C33.9237 12.5822 33.8297 12.3307 33.6485 12.1421ZM24.6056 18.0499C21.9428 16.0339 18.6956 16.3545 16.4846 16.9449L16.1282 13.65H31.8717L31.3219 18.7251C29.2739 19.3361 26.6527 19.6035 24.6058 18.05L24.6056 18.0499ZM31.1143 20.6461L29.6292 34.35H18.3707L16.6826 18.7675C18.5126 18.2227 21.2695 17.8384 23.3942 19.4485C24.9367 20.6179 26.6874 20.997 28.3111 20.997C29.3252 20.997 30.28 20.8443 31.1143 20.6461Z" fill="white" stroke="white" stroke-width="0.3"/>
</svg>
