<svg xmlns="http://www.w3.org/2000/svg" width="38" height="43" viewBox="0 0 38 43" fill="none">
<path d="M37.5023 24.6972C37.5023 24.797 37.5023 24.8967 37.4852 24.9822C37.4852 25.0192 37.4852 25.0534 37.4852 25.0905C37.4852 25.2215 37.4739 25.3526 37.4512 25.4837C37.4525 25.4989 37.4525 25.5141 37.4512 25.5293C37.4512 25.6461 37.4256 25.763 37.4114 25.8769L37.3944 25.9852C37.3944 26.0907 37.3631 26.1961 37.3461 26.2987C37.3461 26.3243 37.3461 26.35 37.3461 26.3756C37.3234 26.5067 37.2978 26.6378 37.2694 26.766V26.8173L37.1927 27.1564C37.1927 27.1849 37.1785 27.2134 37.17 27.239C37.1416 27.3587 37.1104 27.4784 37.0791 27.5952V27.618C37.0432 27.7491 37.0034 27.8802 36.9599 28.0113V28.0455L36.8406 28.396L36.8236 28.4444C36.7327 28.7037 36.6333 28.9573 36.5396 29.2081C35.5782 31.4437 33.9989 33.3564 31.9884 34.7198C29.9779 36.0833 27.6204 36.8405 25.1946 36.9019H24.4222H24.1837H24.0814L23.8656 36.8877C23.8287 36.8877 23.7946 36.8877 23.7577 36.8877L23.5504 36.8706H23.4453L23.2352 36.8449L23.1329 36.8307L22.9228 36.8022H22.8234L22.6132 36.7651L22.5224 36.748L22.3037 36.7082L22.2185 36.6911L21.997 36.6426L21.9232 36.6227L21.6932 36.5685L21.625 36.5514L21.3921 36.4887L21.3325 36.4688L21.094 36.4004L21.0428 36.3833L20.7986 36.3035H20.756L20.5033 36.2152H20.472L20.2108 36.1183H20.1909C20.1029 36.0812 20.012 36.0471 19.924 36.0072L19.64 35.8875C18.2521 35.2626 16.9865 34.3941 15.9028 33.3229C13.9698 32.7097 12.2837 31.4906 11.0922 29.8447C9.90078 28.1988 9.26674 26.2128 9.28327 24.1786C9.28327 24.0504 9.28327 23.9221 9.28327 23.7939V23.6714C9.28327 23.584 9.28895 23.4985 9.30031 23.4149C9.30031 23.3636 9.30031 23.3152 9.30031 23.2667L9.32587 23.0331C9.32587 22.9846 9.32587 22.9333 9.34575 22.8849C9.36563 22.8364 9.36563 22.731 9.37983 22.6569C9.39403 22.5828 9.39403 22.56 9.40255 22.5116C9.41107 22.4632 9.43378 22.352 9.44798 22.2722L9.47354 22.144C9.4991 22.0243 9.5275 21.9075 9.55873 21.7907C9.55873 21.7622 9.55873 21.7365 9.58145 21.708C9.60417 21.6168 9.62973 21.5285 9.65813 21.4231C9.68652 21.3176 9.68652 21.3262 9.70356 21.2777C9.7206 21.2293 9.74616 21.1438 9.76888 21.0783C9.7916 21.0127 9.8058 20.97 9.82567 20.9187C9.84555 20.8674 9.86827 20.7962 9.89383 20.7363L9.95631 20.5739L10.0301 20.4029C10.0529 20.3488 10.0756 20.2918 10.1011 20.2376C10.1267 20.1835 10.1494 20.1322 10.175 20.0809L10.2573 19.9099L10.317 19.7931C10.3823 19.6677 10.4504 19.5423 10.5214 19.4198L10.5839 19.3115C10.6208 19.2488 10.6606 19.1861 10.7003 19.1235L10.7685 19.0123L10.8934 18.8243L10.9616 18.7245L11.0979 18.5364L11.1604 18.451L11.3137 18.2515L11.3506 18.2087C11.5182 18.0007 11.6943 17.7984 11.876 17.6075C11.9754 17.5021 12.0776 17.3995 12.1799 17.2997L12.2139 17.2684L12.4241 17.0746L12.4638 17.0404C12.5348 16.9749 12.6087 16.9122 12.6825 16.8495L12.7081 16.8296C13.1219 16.4859 13.5647 16.1789 14.0314 15.912C14.1223 15.8607 14.2132 15.8094 14.3154 15.761H14.3353L14.6192 15.6185C15.0336 15.4145 15.4627 15.2421 15.9028 15.1027C16.0505 15.0571 16.201 15.0115 16.3515 14.9716C18.0147 14.5337 19.7653 14.5577 21.416 15.041C23.0667 15.5244 24.5554 16.4489 25.7228 17.7158C26.2709 17.8611 26.836 18.0292 27.4267 18.2315C27.4267 18.2315 30.5192 16.3508 31.7716 14.5271C31.7716 14.5271 28.9744 13.1023 26.4839 11.5493C26.1772 11.3584 25.8762 11.1675 25.5865 10.9794C25.5865 10.9794 24.5528 9.31809 24.4108 7.77647C24.0279 7.72662 23.6485 7.65238 23.2749 7.55421C21.7813 7.15519 20.4158 6.37583 19.3106 5.29165C18.6745 4.67359 18.1337 3.96385 17.7061 3.18582C17.1634 2.19921 16.8126 1.11808 16.6724 0L16.5617 0.0341948C16.3515 0.108284 16.1641 0.182372 15.9937 0.253612C15.7247 0.37684 15.4621 0.513798 15.2071 0.66395C15.1105 0.72664 15.0168 0.789331 14.9231 0.85772C14.8294 0.92611 14.7215 1.0116 14.6391 1.09423C14.4764 1.23329 14.3209 1.38072 14.1734 1.53592C13.3473 2.41151 12.8296 3.53447 12.6995 4.73313L12.8188 4.67614L12.6995 4.73313L12.336 4.90411L12.018 5.05799L11.5778 5.28025L11.2938 5.43128L10.7912 5.69914L10.5413 5.83307C10.2942 5.96985 10.0472 6.11803 9.80012 6.25481C9.43473 6.49227 9.07502 6.73923 8.721 6.99569C8.3291 7.28635 7.95047 7.58935 7.58508 7.90471C6.95877 8.43111 6.36331 8.99342 5.80169 9.5888C2.07616 13.5264 -0.000628068 18.749 1.4248e-07 24.1786C1.4248e-07 24.4636 1.41759e-07 24.7485 0.0198787 25.0335C0.132853 30.0214 2.21586 34.7601 5.81067 38.2069C9.40548 41.6538 14.2176 43.5266 19.1885 43.4132C24.1593 43.2998 28.8817 41.2096 32.3167 37.6025C35.7518 33.9953 37.6181 29.1666 37.5051 24.1786C37.5051 24.3125 37.5051 24.4436 37.5051 24.5775C37.5051 24.6174 37.5023 24.6573 37.5023 24.6972ZM23.7946 11.1304C23.7946 11.1304 22.0055 11.3983 22.2583 9.52041C22.2583 9.52041 23.3118 9.60305 23.7946 11.1304Z" fill="#FBE04C"/>
<path d="M18.7566 14.6719C17.943 14.6715 17.1327 14.7759 16.3456 14.9825C16.1951 15.0224 16.0446 15.068 15.8969 15.1136C15.4678 15.2498 15.0492 15.4174 14.6446 15.6151L14.3606 15.7576H14.3407C14.247 15.806 14.1561 15.8573 14.0567 15.9086C13.59 16.1755 13.1472 16.4825 12.7334 16.8261L12.7078 16.8461C12.634 16.9088 12.5602 16.9715 12.4892 17.037L12.4494 17.0712L12.2393 17.265L12.2052 17.2963C12.103 17.3961 12.0007 17.4986 11.9013 17.6041C11.7196 17.795 11.5435 17.9973 11.376 18.2053L11.339 18.2481L11.1857 18.4476L11.1232 18.533L10.9869 18.7211L10.9188 18.8208L10.7938 19.0089L10.7257 19.1201C10.6859 19.1827 10.6461 19.2454 10.6092 19.3081L10.5467 19.4164C10.4758 19.5389 10.4076 19.6643 10.3423 19.7897L10.2826 19.9065L10.2003 20.0775C10.1747 20.1288 10.152 20.1801 10.1265 20.2342C10.1009 20.2884 10.0782 20.3454 10.0555 20.3995L9.98163 20.5705L9.91915 20.7329C9.8936 20.7928 9.87372 20.8554 9.851 20.9153C9.82828 20.9751 9.81124 21.0207 9.7942 21.0749C9.77716 21.129 9.74877 21.2059 9.72889 21.2743C9.70901 21.3427 9.69765 21.3712 9.68345 21.4197C9.66925 21.4681 9.6295 21.5992 9.60678 21.7046C9.60678 21.7331 9.58974 21.7588 9.58406 21.7873C9.55282 21.9041 9.52442 22.0209 9.49886 22.1406L9.47331 22.2688C9.47331 22.3486 9.44207 22.4284 9.42787 22.5082C9.41367 22.588 9.41083 22.6051 9.40515 22.6535C9.39947 22.702 9.37959 22.8045 9.37107 22.8815C9.36255 22.9584 9.37107 22.9812 9.3512 23.0297L9.32564 23.2633C9.32564 23.3118 9.32564 23.3602 9.32564 23.4115C9.32564 23.4628 9.32564 23.5796 9.3086 23.668V23.7905C9.3086 23.9187 9.3086 24.047 9.3086 24.1752C9.30672 26.1931 9.94463 28.1593 11.13 29.7893C12.3154 31.4194 13.9869 32.6287 15.9026 33.2425C13.6418 31.0137 12.2961 28.0151 12.1314 24.8391C12.1314 24.6539 12.1314 24.4687 12.1314 24.2692C12.1314 24.235 12.1314 24.2008 12.1314 24.1666C12.1305 22.4706 12.7779 20.8387 13.9403 19.6073C14.1118 19.4258 14.2929 19.2537 14.4827 19.0916C14.5991 18.9918 14.7184 18.8978 14.8405 18.8066C14.9626 18.7154 15.0649 18.6499 15.1784 18.5758C15.2572 18.5221 15.3387 18.4726 15.4227 18.4276C15.7572 18.2286 16.1077 18.0579 16.4705 17.9175C16.6088 17.8605 16.7479 17.8064 16.888 17.7551L17.1123 17.6753L17.2316 17.6354L17.5156 17.5471C17.6121 17.5186 17.7059 17.4901 17.7996 17.4673H17.8166C17.9416 17.4331 18.0694 17.4018 18.1943 17.3733H18.2341C18.3902 17.3391 18.5464 17.3106 18.6998 17.2849H18.7481C18.8986 17.2593 19.0519 17.2365 19.2024 17.2165H19.2734L19.7391 17.1738H19.7846C19.9408 17.1738 20.0941 17.1567 20.2475 17.1539H20.8921C22.5101 17.139 24.1226 17.3441 25.6857 17.7637C24.8057 16.7966 23.7359 16.0226 22.5434 15.4905C21.3509 14.9584 20.0616 14.6797 18.7566 14.6719Z" fill="#FF961B"/>
<path d="M31.6025 10.463C30.4274 9.34752 29.1175 8.38444 27.7034 7.59632C25.1305 6.16493 22.2526 5.37434 19.3119 5.29102C20.4206 6.37585 21.7902 7.15433 23.2876 7.55072C23.6611 7.6489 24.0405 7.72313 24.4235 7.77299C24.5655 9.31461 25.5991 10.9759 25.5991 10.9759C25.8831 11.164 26.1898 11.3549 26.4965 11.5458C28.9671 13.0874 31.7586 14.5322 31.7586 14.5322C30.5063 16.3701 27.4138 18.2366 27.4138 18.2366C26.8259 18.0343 26.2608 17.8662 25.7099 17.7208C25.8121 17.8329 25.9068 17.9469 25.9939 18.0628C26.0933 18.1796 26.1927 18.3021 26.2779 18.4247C27.496 20.0329 28.1722 21.9886 28.2083 24.0084C28.2444 26.0281 27.6385 28.0069 26.4785 29.6579C25.3186 31.3089 23.6648 32.5464 21.7568 33.1909C19.8489 33.8354 17.786 33.8534 15.8672 33.2424C16.9493 34.3143 18.214 35.1829 19.6015 35.807L19.8855 35.9267C19.9735 35.9666 20.0644 36.0008 20.1524 36.0379H20.1723L20.4336 36.1347H20.4648L20.7175 36.2231H20.7601L21.0044 36.3029L21.0555 36.32L21.294 36.3884L21.3537 36.4083L21.5865 36.471L21.6547 36.4881L21.8847 36.5422L21.9585 36.5622L22.18 36.6106L22.2652 36.6277L22.4839 36.6676L22.5748 36.6847L22.7849 36.7218H22.8843L23.0945 36.7503L23.1967 36.7645L23.4068 36.7901H23.5119L23.7192 36.8072C23.7561 36.8072 23.7902 36.8072 23.8271 36.8072L24.0429 36.8215H24.1452H24.3837H25.1334C25.8544 36.8014 26.5725 36.7214 27.2803 36.5821L27.4904 36.5394C27.817 36.4681 28.1408 36.3855 28.4588 36.2886C28.5696 36.2573 28.6803 36.2202 28.7911 36.1832C29.041 36.1005 29.288 36.0122 29.5323 35.9125C29.6941 35.8469 29.8532 35.7785 30.0122 35.7073C30.353 35.5534 30.688 35.3853 31.0118 35.2029C33.4471 33.8335 35.3674 31.7003 36.4784 29.1305C36.5863 28.8797 36.6857 28.6261 36.7624 28.3668L36.7794 28.3184L36.8987 27.9679V27.9337C36.9403 27.8026 36.9801 27.6715 37.0179 27.5404V27.5176C37.0492 27.4008 37.0804 27.2811 37.1088 27.1615C37.1088 27.1358 37.123 27.1073 37.1315 27.0788L37.2082 26.7397V26.6884C37.2366 26.5602 37.2622 26.4291 37.2849 26.298C37.2849 26.2724 37.2849 26.2467 37.2849 26.2211C37.3019 26.1185 37.319 26.0131 37.3332 25.9076L37.3502 25.7994C37.3644 25.6854 37.3786 25.5685 37.39 25.4517C37.3913 25.4365 37.3913 25.4213 37.39 25.4061C37.4032 25.275 37.4146 25.144 37.424 25.0129C37.424 24.9758 37.424 24.9416 37.424 24.9046C37.424 24.8049 37.424 24.7051 37.4411 24.6196C37.4411 24.5797 37.4411 24.5399 37.4411 24.5028C37.4411 24.3698 37.4411 24.2359 37.4411 24.101C37.4425 21.549 36.9255 19.0234 35.9216 16.6786C34.9178 14.3337 33.4481 12.2188 31.6025 10.463Z" fill="#FF961B"/>
<path d="M26.3032 18.4316C26.2095 18.3091 26.1101 18.1865 26.0192 18.0697C25.9283 17.9529 25.8233 17.8389 25.7352 17.7278C24.1722 17.3082 22.5596 17.103 20.9417 17.1179C21.007 17.1179 21.0695 17.1179 21.1348 17.1179H20.8224H20.2743C20.121 17.1179 19.9676 17.1179 19.8114 17.1379H19.766L19.3116 17.1806H19.2406C19.0901 17.2006 18.9368 17.2234 18.7863 17.249H18.738C18.5846 17.2747 18.4284 17.3032 18.2723 17.3374H18.2325C18.1076 17.3659 17.9798 17.3972 17.8548 17.4314H17.8378C17.7412 17.4542 17.6475 17.4827 17.5538 17.5112L17.2698 17.5995L17.1505 17.6394L16.9262 17.7192C16.7861 17.7705 16.647 17.8246 16.5088 17.8816C16.1453 18.0182 15.7938 18.185 15.458 18.3803C15.6171 18.292 15.8499 18.1723 16.1566 18.0384C16.3526 17.9529 16.5769 17.8645 16.8296 17.7762C17.0414 17.7104 17.2566 17.6561 17.4743 17.6138L17.5566 17.5967L17.71 17.571L17.8293 17.5511L17.9684 17.534L18.1076 17.5169H18.2353H18.4029H18.508H18.7749C20.0735 17.5197 21.3428 17.9044 22.4257 18.6235C23.5087 19.3425 24.3579 20.3643 24.8683 21.5625C25.3786 22.7608 25.5278 24.0828 25.2973 25.3652C25.0667 26.6475 24.4667 27.834 23.5713 28.7777C22.6759 29.7215 21.5244 30.3812 20.2593 30.6752C18.9942 30.9693 17.671 30.8848 16.4533 30.4321C15.2355 29.9795 14.1767 29.1787 13.4078 28.1286C12.6389 27.0785 12.1936 25.8253 12.127 24.524C12.2113 27.8121 13.5655 30.9386 15.9039 33.2437C17.8227 33.8547 19.8856 33.8366 21.7935 33.1921C23.7014 32.5476 25.3553 31.3102 26.5152 29.6591C27.6752 28.0081 28.281 26.0293 28.245 24.0096C28.2089 21.9899 27.5327 20.0341 26.3145 18.4259L26.3032 18.4316Z" fill="#1A1A1A"/>
<path d="M19.0276 21.6314C19.0703 21.5858 19.1158 21.5429 19.1639 21.5032L19.2491 21.4348L19.3116 21.3721C19.3883 21.3265 19.4649 21.2895 19.5416 21.2524L19.6552 21.2068C19.3634 21.1239 19.0611 21.0836 18.7578 21.0871H18.5818H18.5023H18.4426H18.3773H18.312H18.258H18.187H18.1473C18.0512 21.1073 17.9564 21.133 17.8633 21.1641C17.744 21.2068 17.639 21.2467 17.5481 21.2866C17.4033 21.355 17.2641 21.4291 17.1079 21.5146L16.9517 21.6228L16.7842 21.7568C16.6933 21.8333 16.607 21.9151 16.5258 22.0018C15.9805 22.5745 15.6754 23.3356 15.6738 24.1276C15.6738 24.1818 15.6738 24.2359 15.6738 24.29C15.6942 24.7303 15.8078 25.1611 16.0071 25.5539C16.2064 25.9466 16.4867 26.2923 16.8295 26.5678C17.1723 26.8434 17.5696 27.0425 17.9951 27.1519C18.4205 27.2613 18.8643 27.2786 19.2969 27.2025C19.7296 27.1264 20.1411 26.9587 20.504 26.7106C20.867 26.4625 21.1732 26.1397 21.4021 25.7636C21.6311 25.3874 21.7776 24.9667 21.8319 24.5294C21.8861 24.092 21.8469 23.6481 21.7169 23.2272C21.5873 23.5729 21.344 23.8638 21.0272 24.0519C20.7104 24.2399 20.3391 24.3138 19.9748 24.2613C19.6104 24.2088 19.2749 24.033 19.0236 23.7631C18.7724 23.4932 18.6205 23.1453 18.5931 22.7769C18.5931 22.7484 18.5931 22.7199 18.5931 22.6943C18.6036 22.2986 18.7581 21.9205 19.0276 21.6314Z" fill="#1A1A1A"/>
<path d="M23.7952 11.1305C23.3124 9.60315 22.2588 9.52051 22.2588 9.52051C22.0061 11.3984 23.7952 11.1305 23.7952 11.1305Z" fill="white"/>
<path d="M23.8267 19.876C23.2039 19.1361 22.4277 18.5416 21.5521 18.1341C20.6765 17.7266 19.7229 17.5158 18.7577 17.5166H18.4907H18.3857H18.2181H18.0903L17.9512 17.5337L17.812 17.5508L17.6928 17.5707L17.5394 17.5964L17.4571 17.6135C17.2394 17.6559 17.0242 17.7101 16.8124 17.7759C16.5597 17.8643 16.3353 17.9526 16.1394 18.0381C15.8242 18.1834 15.509 18.3458 15.1937 18.5311C15.0802 18.6051 14.9666 18.6821 14.8558 18.7619C14.7451 18.8417 14.6144 18.9471 14.498 19.0468C14.2991 19.2119 14.1095 19.3879 13.93 19.574C12.7677 20.8054 12.1202 22.4372 12.1211 24.1333C12.1211 24.1675 12.1211 24.2017 12.1211 24.2359V24.4781C12.1693 25.536 12.4681 26.5672 12.9928 27.4861C13.5175 28.405 14.2529 29.1851 15.1381 29.7618C16.0233 30.3385 17.0327 30.6952 18.0827 30.8022C19.1327 30.9092 20.193 30.7635 21.1757 30.3771C22.1583 29.9908 23.0351 29.375 23.7331 28.5807C24.4312 27.7864 24.9306 26.8366 25.1897 25.81C25.4489 24.7834 25.4604 23.7096 25.2234 22.6776C24.9864 21.6456 24.5076 20.6852 23.8267 19.876ZM18.7577 27.2849C17.9651 27.2852 17.2027 26.9798 16.6282 26.432C16.0536 25.8841 15.7109 25.1356 15.6708 24.3413C15.6708 24.2872 15.6708 24.233 15.6708 24.1789C15.6724 23.3869 15.9775 22.6258 16.5228 22.0531C16.604 21.9664 16.6903 21.8845 16.7812 21.8081L16.9487 21.6741L17.1049 21.5658C17.2526 21.4804 17.3889 21.4063 17.5451 21.3379C17.636 21.298 17.741 21.2581 17.8603 21.2153C17.9534 21.1842 18.0482 21.1586 18.1443 21.1384H18.184H18.255H18.309H18.3743H18.4396H18.4993H18.5788H18.7548C19.0607 21.1389 19.3649 21.184 19.6579 21.2723L19.5443 21.3179C19.4676 21.355 19.391 21.392 19.3143 21.4376L19.2319 21.4946L19.1467 21.563C19.0986 21.6028 19.0531 21.6456 19.0104 21.6912C18.727 21.9924 18.5695 22.3912 18.5703 22.8054C18.5703 22.8311 18.5703 22.8595 18.5703 22.888C18.5976 23.2564 18.7495 23.6043 19.0007 23.8742C19.252 24.1441 19.5875 24.3199 19.9519 24.3724C20.3162 24.4249 20.6875 24.351 21.0043 24.163C21.3211 23.9749 21.5644 23.684 21.694 23.3383C21.8333 23.8009 21.8626 24.2898 21.7797 24.7658C21.6968 25.2419 21.5039 25.6918 21.2166 26.0796C20.9292 26.4674 20.5553 26.7823 20.1249 26.999C19.6944 27.2157 19.2194 27.3283 18.7378 27.3277L18.7577 27.2849Z" fill="white"/>
</svg>