<svg width="654" height="342" viewBox="0 0 654 342" fill="none" xmlns="http://www.w3.org/2000/svg">
<rect x="1" y="1" width="651" height="62" rx="5" fill="white"/>
<rect x="1" y="1" width="651" height="62" rx="5" stroke="#F5F7FA" stroke-width="2"/>
<path d="M30.6665 32H49.3332M30.6665 32L38.6665 40M30.6665 32L38.6665 24" stroke="#545454" stroke-width="2" stroke-linecap="round" stroke-linejoin="round"/>
<path d="M84.6665 32H103.333M103.333 32L95.3332 40M103.333 32L95.3332 24" stroke="#545454" stroke-width="2" stroke-linecap="round" stroke-linejoin="round"/>
<path d="M158.577 33.3872C158.325 35.3072 157.556 37.1224 156.351 38.6381C155.146 40.1539 153.551 41.3131 151.737 41.9913C149.923 42.6695 147.959 42.8412 146.055 42.488C144.152 42.1348 142.38 41.27 140.93 39.9863C139.48 38.7027 138.407 37.0486 137.826 35.2014C137.245 33.3543 137.178 31.3839 137.631 29.5014C138.085 27.6189 139.043 25.8954 140.401 24.5157C141.76 23.1361 143.469 22.1523 145.344 21.6699C150.543 20.3366 155.924 23.0126 157.911 27.9992M158.667 21.333V27.9997H152" stroke="#545454" stroke-width="2" stroke-linecap="round" stroke-linejoin="round"/>
<path d="M191.833 32H189.5L200 21.5L210.5 32H208.167" stroke="#545454" stroke-width="2" stroke-linecap="round" stroke-linejoin="round"/>
<rect x="239" y="9" width="390" height="46" rx="23" fill="#F1F3F4"/>
<rect x="239" y="9" width="56" height="46" rx="23" fill="#E1E5E7"/>
<path d="M274.5 27.5H271.125V24.875C271.125 23.781 270.69 22.7318 269.916 21.9582C269.143 21.1846 268.094 20.75 267 20.75C265.905 20.75 264.856 21.1846 264.083 21.9582C263.309 22.7318 262.875 23.781 262.875 24.875V27.5H259.5C259.102 27.5005 258.721 27.6586 258.439 27.9398C258.158 28.221 258 28.6023 258 29V39.5C258 39.8977 258.158 40.279 258.439 40.5602C258.721 40.8414 259.102 40.9995 259.5 41H274.5C274.897 40.9995 275.278 40.8414 275.56 40.5602C275.841 40.279 275.999 39.8977 276 39.5V29C275.999 28.6023 275.841 28.221 275.56 27.9398C275.278 27.6586 274.897 27.5005 274.5 27.5ZM264.375 24.875C264.375 24.1788 264.651 23.5111 265.143 23.0188C265.636 22.5266 266.303 22.25 267 22.25C267.696 22.25 268.363 22.5266 268.856 23.0188C269.348 23.5111 269.625 24.1788 269.625 24.875V27.5H264.375V24.875Z" fill="black"/>
<rect x="1" y="79" width="652" height="262" rx="5" fill="white"/>
<rect x="1" y="79" width="652" height="262" rx="5" stroke="#F5F7FA" stroke-width="2"/>
<rect x="1" y="79" width="652" height="262" rx="5" fill="white" stroke="#F5F7FA" stroke-width="2"/>
<path d="M52.0002 194C54.7668 194 56.9835 191.767 56.9835 189L57.0002 179C57.0002 176.233 54.7668 174 52.0002 174C49.2335 174 47.0002 176.233 47.0002 179V189C47.0002 191.767 49.2335 194 52.0002 194ZM60.8335 189C60.8335 194 56.6002 197.5 52.0002 197.5C47.4002 197.5 43.1668 194 43.1668 189H40.3335C40.3335 194.7 44.8668 199.383 50.3335 200.2V205.667H53.6668V200.2C59.1335 199.4 63.6668 194.7 63.6668 189H60.8335Z" fill="#545454"/>
<path d="M107.142 180.045H109.784V191.526C109.784 192.747 109.497 193.83 108.923 194.773C108.349 195.71 107.543 196.449 106.503 196.989C105.463 197.523 104.244 197.79 102.847 197.79C101.455 197.79 100.239 197.523 99.1989 196.989C98.1591 196.449 97.3523 195.71 96.7784 194.773C96.2045 193.83 95.9176 192.747 95.9176 191.526V180.045H98.5511V191.312C98.5511 192.102 98.7244 192.804 99.071 193.418C99.4233 194.031 99.9205 194.514 100.562 194.866C101.205 195.213 101.966 195.386 102.847 195.386C103.733 195.386 104.497 195.213 105.139 194.866C105.787 194.514 106.281 194.031 106.622 193.418C106.969 192.804 107.142 192.102 107.142 191.312V180.045ZM122.718 187.605L120.408 188.014C120.312 187.719 120.158 187.437 119.948 187.17C119.744 186.903 119.465 186.685 119.113 186.514C118.761 186.344 118.32 186.259 117.792 186.259C117.07 186.259 116.468 186.42 115.985 186.744C115.502 187.062 115.261 187.474 115.261 187.98C115.261 188.418 115.423 188.77 115.746 189.037C116.07 189.304 116.593 189.523 117.315 189.693L119.394 190.17C120.599 190.449 121.496 190.878 122.087 191.457C122.678 192.037 122.974 192.79 122.974 193.716C122.974 194.5 122.746 195.199 122.292 195.812C121.843 196.42 121.215 196.898 120.408 197.244C119.607 197.591 118.678 197.764 117.621 197.764C116.156 197.764 114.96 197.452 114.033 196.827C113.107 196.196 112.539 195.301 112.329 194.142L114.792 193.767C114.945 194.409 115.261 194.895 115.738 195.224C116.215 195.548 116.837 195.71 117.604 195.71C118.44 195.71 119.107 195.537 119.607 195.19C120.107 194.838 120.357 194.409 120.357 193.903C120.357 193.494 120.204 193.151 119.897 192.872C119.596 192.594 119.133 192.384 118.508 192.241L116.292 191.756C115.07 191.477 114.167 191.034 113.582 190.426C113.002 189.818 112.712 189.048 112.712 188.116C112.712 187.344 112.928 186.668 113.36 186.088C113.792 185.509 114.388 185.057 115.15 184.733C115.911 184.403 116.783 184.239 117.766 184.239C119.181 184.239 120.295 184.545 121.107 185.159C121.92 185.767 122.457 186.582 122.718 187.605ZM130.918 197.764C129.628 197.764 128.517 197.489 127.585 196.938C126.659 196.381 125.943 195.599 125.438 194.594C124.938 193.582 124.688 192.398 124.688 191.04C124.688 189.699 124.938 188.517 125.438 187.494C125.943 186.472 126.648 185.673 127.551 185.099C128.46 184.526 129.523 184.239 130.739 184.239C131.477 184.239 132.193 184.361 132.886 184.605C133.58 184.849 134.202 185.233 134.753 185.756C135.304 186.278 135.739 186.957 136.057 187.793C136.375 188.622 136.534 189.631 136.534 190.818V191.722H126.128V189.812H134.037C134.037 189.142 133.901 188.548 133.628 188.031C133.355 187.509 132.972 187.097 132.477 186.795C131.989 186.494 131.415 186.344 130.756 186.344C130.04 186.344 129.415 186.52 128.881 186.872C128.352 187.219 127.943 187.673 127.653 188.236C127.369 188.793 127.227 189.398 127.227 190.051V191.543C127.227 192.418 127.381 193.162 127.688 193.776C128 194.389 128.435 194.858 128.991 195.182C129.548 195.5 130.199 195.659 130.943 195.659C131.426 195.659 131.866 195.591 132.264 195.455C132.662 195.312 133.006 195.102 133.295 194.824C133.585 194.545 133.807 194.202 133.96 193.793L136.372 194.227C136.179 194.937 135.832 195.56 135.332 196.094C134.838 196.622 134.216 197.034 133.466 197.33C132.722 197.619 131.872 197.764 130.918 197.764ZM146.324 202.409C145.943 202.409 145.597 202.378 145.284 202.315C144.972 202.259 144.739 202.196 144.585 202.128L145.199 200.04C145.665 200.165 146.08 200.219 146.443 200.202C146.807 200.185 147.128 200.048 147.406 199.793C147.69 199.537 147.94 199.119 148.156 198.54L148.472 197.67L143.682 184.409H146.409L149.724 194.568H149.861L153.176 184.409H155.912L150.517 199.247C150.267 199.929 149.949 200.506 149.562 200.977C149.176 201.455 148.716 201.813 148.182 202.051C147.648 202.29 147.028 202.409 146.324 202.409ZM162.876 197.764C161.648 197.764 160.577 197.483 159.663 196.92C158.748 196.358 158.038 195.571 157.532 194.56C157.026 193.548 156.773 192.366 156.773 191.014C156.773 189.656 157.026 188.469 157.532 187.452C158.038 186.435 158.748 185.645 159.663 185.082C160.577 184.52 161.648 184.239 162.876 184.239C164.103 184.239 165.174 184.52 166.089 185.082C167.004 185.645 167.714 186.435 168.219 187.452C168.725 188.469 168.978 189.656 168.978 191.014C168.978 192.366 168.725 193.548 168.219 194.56C167.714 195.571 167.004 196.358 166.089 196.92C165.174 197.483 164.103 197.764 162.876 197.764ZM162.884 195.625C163.68 195.625 164.339 195.415 164.862 194.994C165.384 194.574 165.771 194.014 166.021 193.315C166.276 192.616 166.404 191.847 166.404 191.006C166.404 190.17 166.276 189.403 166.021 188.705C165.771 188 165.384 187.435 164.862 187.009C164.339 186.582 163.68 186.369 162.884 186.369C162.083 186.369 161.418 186.582 160.89 187.009C160.367 187.435 159.978 188 159.722 188.705C159.472 189.403 159.347 190.17 159.347 191.006C159.347 191.847 159.472 192.616 159.722 193.315C159.978 194.014 160.367 194.574 160.89 194.994C161.418 195.415 162.083 195.625 162.884 195.625ZM179.615 192.071V184.409H182.172V197.5H179.666V195.233H179.53C179.229 195.932 178.746 196.514 178.081 196.98C177.422 197.44 176.601 197.67 175.618 197.67C174.777 197.67 174.033 197.486 173.385 197.116C172.743 196.741 172.237 196.188 171.868 195.455C171.504 194.722 171.322 193.815 171.322 192.736V184.409H173.871V192.429C173.871 193.321 174.118 194.031 174.612 194.56C175.107 195.088 175.749 195.352 176.538 195.352C177.016 195.352 177.49 195.233 177.962 194.994C178.439 194.756 178.834 194.395 179.146 193.912C179.464 193.429 179.621 192.815 179.615 192.071ZM185.096 197.5V184.409H187.559V186.489H187.695C187.934 185.784 188.354 185.23 188.957 184.827C189.565 184.418 190.252 184.213 191.019 184.213C191.178 184.213 191.366 184.219 191.582 184.23C191.803 184.241 191.977 184.256 192.102 184.273V186.71C191.999 186.682 191.817 186.651 191.556 186.616C191.295 186.577 191.033 186.557 190.772 186.557C190.17 186.557 189.633 186.685 189.161 186.94C188.695 187.19 188.326 187.54 188.053 187.989C187.781 188.432 187.644 188.937 187.644 189.506V197.5H185.096ZM199.658 197.5V184.409H202.104V186.54H202.266C202.539 185.818 202.985 185.256 203.604 184.852C204.224 184.443 204.965 184.239 205.829 184.239C206.704 184.239 207.437 184.443 208.028 184.852C208.624 185.261 209.065 185.824 209.349 186.54H209.485C209.798 185.841 210.295 185.284 210.977 184.869C211.658 184.449 212.471 184.239 213.414 184.239C214.602 184.239 215.57 184.611 216.32 185.355C217.076 186.099 217.454 187.222 217.454 188.722V197.5H214.906V188.96C214.906 188.074 214.664 187.432 214.181 187.034C213.698 186.636 213.121 186.438 212.451 186.438C211.621 186.438 210.977 186.693 210.516 187.205C210.056 187.71 209.826 188.361 209.826 189.156V197.5H207.286V188.798C207.286 188.088 207.065 187.517 206.621 187.085C206.178 186.653 205.602 186.438 204.891 186.438C204.408 186.438 203.962 186.565 203.553 186.821C203.15 187.071 202.823 187.42 202.573 187.869C202.329 188.318 202.207 188.838 202.207 189.429V197.5H199.658ZM220.369 197.5V184.409H222.918V197.5H220.369ZM221.656 182.389C221.213 182.389 220.832 182.241 220.514 181.946C220.202 181.645 220.045 181.287 220.045 180.872C220.045 180.452 220.202 180.094 220.514 179.798C220.832 179.497 221.213 179.347 221.656 179.347C222.099 179.347 222.477 179.497 222.79 179.798C223.108 180.094 223.267 180.452 223.267 180.872C223.267 181.287 223.108 181.645 222.79 181.946C222.477 182.241 222.099 182.389 221.656 182.389ZM231.36 197.764C230.093 197.764 229.002 197.477 228.087 196.903C227.178 196.324 226.479 195.526 225.991 194.509C225.502 193.491 225.258 192.327 225.258 191.014C225.258 189.685 225.508 188.511 226.008 187.494C226.508 186.472 227.212 185.673 228.121 185.099C229.031 184.526 230.102 184.239 231.335 184.239C232.329 184.239 233.215 184.423 233.994 184.793C234.772 185.156 235.4 185.668 235.877 186.327C236.36 186.986 236.647 187.756 236.738 188.636H234.258C234.121 188.023 233.809 187.494 233.32 187.051C232.837 186.608 232.19 186.386 231.377 186.386C230.667 186.386 230.045 186.574 229.511 186.949C228.982 187.318 228.57 187.847 228.275 188.534C227.979 189.216 227.832 190.023 227.832 190.955C227.832 191.909 227.977 192.733 228.266 193.426C228.556 194.119 228.965 194.656 229.494 195.037C230.028 195.418 230.656 195.608 231.377 195.608C231.86 195.608 232.298 195.52 232.69 195.344C233.087 195.162 233.42 194.903 233.687 194.568C233.96 194.233 234.15 193.83 234.258 193.358H236.738C236.647 194.205 236.371 194.96 235.911 195.625C235.451 196.29 234.835 196.812 234.062 197.193C233.295 197.574 232.394 197.764 231.36 197.764ZM238.963 197.5V184.409H241.426V186.489H241.562C241.801 185.784 242.222 185.23 242.824 184.827C243.432 184.418 244.119 184.213 244.886 184.213C245.045 184.213 245.233 184.219 245.449 184.23C245.67 184.241 245.844 184.256 245.969 184.273V186.71C245.866 186.682 245.685 186.651 245.423 186.616C245.162 186.577 244.901 186.557 244.639 186.557C244.037 186.557 243.5 186.685 243.028 186.94C242.563 187.19 242.193 187.54 241.92 187.989C241.648 188.432 241.511 188.937 241.511 189.506V197.5H238.963ZM252.719 197.764C251.492 197.764 250.421 197.483 249.506 196.92C248.592 196.358 247.881 195.571 247.376 194.56C246.87 193.548 246.617 192.366 246.617 191.014C246.617 189.656 246.87 188.469 247.376 187.452C247.881 186.435 248.592 185.645 249.506 185.082C250.421 184.52 251.492 184.239 252.719 184.239C253.947 184.239 255.018 184.52 255.933 185.082C256.847 185.645 257.558 186.435 258.063 187.452C258.569 188.469 258.822 189.656 258.822 191.014C258.822 192.366 258.569 193.548 258.063 194.56C257.558 195.571 256.847 196.358 255.933 196.92C255.018 197.483 253.947 197.764 252.719 197.764ZM252.728 195.625C253.523 195.625 254.183 195.415 254.705 194.994C255.228 194.574 255.614 194.014 255.864 193.315C256.12 192.616 256.248 191.847 256.248 191.006C256.248 190.17 256.12 189.403 255.864 188.705C255.614 188 255.228 187.435 254.705 187.009C254.183 186.582 253.523 186.369 252.728 186.369C251.927 186.369 251.262 186.582 250.734 187.009C250.211 187.435 249.822 188 249.566 188.705C249.316 189.403 249.191 190.17 249.191 191.006C249.191 191.847 249.316 192.616 249.566 193.315C249.822 194.014 250.211 194.574 250.734 194.994C251.262 195.415 251.927 195.625 252.728 195.625ZM261.166 202.409V184.409H263.655V186.531H263.868C264.016 186.259 264.229 185.943 264.507 185.585C264.786 185.227 265.172 184.915 265.666 184.648C266.161 184.375 266.814 184.239 267.626 184.239C268.683 184.239 269.626 184.506 270.456 185.04C271.286 185.574 271.936 186.344 272.408 187.349C272.885 188.355 273.124 189.565 273.124 190.98C273.124 192.395 272.888 193.608 272.416 194.619C271.945 195.625 271.297 196.401 270.473 196.946C269.649 197.486 268.709 197.756 267.652 197.756C266.857 197.756 266.206 197.622 265.7 197.355C265.2 197.088 264.808 196.776 264.524 196.418C264.24 196.06 264.021 195.741 263.868 195.463H263.714V202.409H261.166ZM263.663 190.955C263.663 191.875 263.797 192.682 264.064 193.375C264.331 194.068 264.717 194.611 265.223 195.003C265.729 195.389 266.348 195.582 267.081 195.582C267.842 195.582 268.479 195.381 268.99 194.977C269.501 194.568 269.888 194.014 270.149 193.315C270.416 192.616 270.55 191.83 270.55 190.955C270.55 190.091 270.419 189.315 270.158 188.628C269.902 187.94 269.516 187.398 268.999 187C268.487 186.602 267.848 186.403 267.081 186.403C266.342 186.403 265.717 186.594 265.206 186.974C264.7 187.355 264.317 187.886 264.055 188.568C263.794 189.25 263.663 190.045 263.663 190.955ZM278.027 189.727V197.5H275.479V180.045H277.993V186.54H278.155C278.462 185.835 278.93 185.276 279.561 184.861C280.192 184.446 281.016 184.239 282.033 184.239C282.93 184.239 283.714 184.423 284.385 184.793C285.061 185.162 285.584 185.713 285.953 186.446C286.328 187.173 286.516 188.082 286.516 189.173V197.5H283.967V189.48C283.967 188.52 283.72 187.776 283.226 187.247C282.732 186.713 282.044 186.446 281.163 186.446C280.561 186.446 280.021 186.574 279.544 186.83C279.072 187.085 278.7 187.46 278.428 187.955C278.161 188.443 278.027 189.034 278.027 189.727ZM294.93 197.764C293.703 197.764 292.632 197.483 291.717 196.92C290.803 196.358 290.092 195.571 289.587 194.56C289.081 193.548 288.828 192.366 288.828 191.014C288.828 189.656 289.081 188.469 289.587 187.452C290.092 186.435 290.803 185.645 291.717 185.082C292.632 184.52 293.703 184.239 294.93 184.239C296.158 184.239 297.229 184.52 298.143 185.082C299.058 185.645 299.768 186.435 300.274 187.452C300.78 188.469 301.033 189.656 301.033 191.014C301.033 192.366 300.78 193.548 300.274 194.56C299.768 195.571 299.058 196.358 298.143 196.92C297.229 197.483 296.158 197.764 294.93 197.764ZM294.939 195.625C295.734 195.625 296.393 195.415 296.916 194.994C297.439 194.574 297.825 194.014 298.075 193.315C298.331 192.616 298.459 191.847 298.459 191.006C298.459 190.17 298.331 189.403 298.075 188.705C297.825 188 297.439 187.435 296.916 187.009C296.393 186.582 295.734 186.369 294.939 186.369C294.138 186.369 293.473 186.582 292.945 187.009C292.422 187.435 292.033 188 291.777 188.705C291.527 189.403 291.402 190.17 291.402 191.006C291.402 191.847 291.527 192.616 291.777 193.315C292.033 194.014 292.422 194.574 292.945 194.994C293.473 195.415 294.138 195.625 294.939 195.625ZM305.925 189.727V197.5H303.377V184.409H305.823V186.54H305.985C306.286 185.847 306.758 185.29 307.4 184.869C308.048 184.449 308.863 184.239 309.846 184.239C310.738 184.239 311.519 184.426 312.19 184.801C312.86 185.17 313.38 185.722 313.749 186.455C314.119 187.187 314.303 188.094 314.303 189.173V197.5H311.755V189.48C311.755 188.531 311.508 187.79 311.013 187.256C310.519 186.716 309.84 186.446 308.977 186.446C308.386 186.446 307.86 186.574 307.4 186.83C306.945 187.085 306.585 187.46 306.317 187.955C306.056 188.443 305.925 189.034 305.925 189.727ZM322.863 197.764C321.573 197.764 320.462 197.489 319.531 196.938C318.604 196.381 317.888 195.599 317.383 194.594C316.883 193.582 316.633 192.398 316.633 191.04C316.633 189.699 316.883 188.517 317.383 187.494C317.888 186.472 318.593 185.673 319.496 185.099C320.406 184.526 321.468 184.239 322.684 184.239C323.423 184.239 324.138 184.361 324.832 184.605C325.525 184.849 326.147 185.233 326.698 185.756C327.249 186.278 327.684 186.957 328.002 187.793C328.32 188.622 328.479 189.631 328.479 190.818V191.722H318.073V189.812H325.982C325.982 189.142 325.846 188.548 325.573 188.031C325.3 187.509 324.917 187.097 324.423 186.795C323.934 186.494 323.36 186.344 322.701 186.344C321.985 186.344 321.36 186.52 320.826 186.872C320.298 187.219 319.888 187.673 319.599 188.236C319.315 188.793 319.173 189.398 319.173 190.051V191.543C319.173 192.418 319.326 193.162 319.633 193.776C319.945 194.389 320.38 194.858 320.937 195.182C321.494 195.5 322.144 195.659 322.888 195.659C323.371 195.659 323.812 195.591 324.21 195.455C324.607 195.312 324.951 195.102 325.241 194.824C325.531 194.545 325.752 194.202 325.906 193.793L328.317 194.227C328.124 194.937 327.778 195.56 327.278 196.094C326.783 196.622 326.161 197.034 325.411 197.33C324.667 197.619 323.817 197.764 322.863 197.764Z" fill="#545454"/>
<path d="M39.2273 145.264C37.9602 145.264 36.8693 144.977 35.9545 144.403C35.0455 143.824 34.3466 143.026 33.858 142.009C33.3693 140.991 33.125 139.827 33.125 138.514C33.125 137.185 33.375 136.011 33.875 134.994C34.375 133.972 35.0795 133.173 35.9886 132.599C36.8977 132.026 37.9688 131.739 39.2017 131.739C40.196 131.739 41.0824 131.923 41.8608 132.293C42.6392 132.656 43.267 133.168 43.7443 133.827C44.2273 134.486 44.5142 135.256 44.6051 136.136H42.125C41.9886 135.523 41.6761 134.994 41.1875 134.551C40.7045 134.108 40.0568 133.886 39.2443 133.886C38.5341 133.886 37.9119 134.074 37.3778 134.449C36.8494 134.818 36.4375 135.347 36.142 136.034C35.8466 136.716 35.6989 137.523 35.6989 138.455C35.6989 139.409 35.8438 140.233 36.1335 140.926C36.4233 141.619 36.8324 142.156 37.3608 142.537C37.8949 142.918 38.5227 143.108 39.2443 143.108C39.7273 143.108 40.1648 143.02 40.5568 142.844C40.9545 142.662 41.2869 142.403 41.554 142.068C41.8267 141.733 42.017 141.33 42.125 140.858H44.6051C44.5142 141.705 44.2386 142.46 43.7784 143.125C43.3182 143.79 42.7017 144.312 41.929 144.693C41.1619 145.074 40.2614 145.264 39.2273 145.264ZM50.6399 145.29C49.8104 145.29 49.0604 145.136 48.3899 144.83C47.7195 144.517 47.1882 144.065 46.7962 143.474C46.4098 142.884 46.2166 142.159 46.2166 141.301C46.2166 140.562 46.3587 139.955 46.6428 139.477C46.9268 139 47.3104 138.622 47.7933 138.344C48.2763 138.065 48.8161 137.855 49.4126 137.713C50.0092 137.571 50.6172 137.463 51.2365 137.389C52.0206 137.298 52.657 137.224 53.1456 137.168C53.6342 137.105 53.9893 137.006 54.2109 136.869C54.4325 136.733 54.5433 136.511 54.5433 136.205V136.145C54.5433 135.401 54.3331 134.824 53.9126 134.415C53.4979 134.006 52.8786 133.801 52.0547 133.801C51.1967 133.801 50.5206 133.991 50.0263 134.372C49.5376 134.747 49.1996 135.165 49.0121 135.625L46.6172 135.08C46.9013 134.284 47.3161 133.642 47.8615 133.153C48.4126 132.659 49.0462 132.301 49.7621 132.08C50.478 131.852 51.2308 131.739 52.0206 131.739C52.5433 131.739 53.0973 131.801 53.6825 131.926C54.2734 132.045 54.8246 132.267 55.3359 132.591C55.853 132.915 56.2763 133.378 56.6058 133.98C56.9354 134.577 57.1001 135.352 57.1001 136.307V145H54.6115V143.21H54.5092C54.3445 143.54 54.0973 143.864 53.7678 144.182C53.4382 144.5 53.0149 144.764 52.4979 144.974C51.9808 145.185 51.3615 145.29 50.6399 145.29ZM51.1939 143.244C51.8984 143.244 52.5007 143.105 53.0007 142.827C53.5064 142.548 53.8899 142.185 54.1513 141.736C54.4183 141.281 54.5518 140.795 54.5518 140.278V138.591C54.4609 138.682 54.2848 138.767 54.0234 138.847C53.7678 138.92 53.4751 138.986 53.1456 139.043C52.8161 139.094 52.495 139.142 52.1825 139.188C51.87 139.227 51.6087 139.261 51.3984 139.29C50.9041 139.352 50.4524 139.457 50.0433 139.605C49.6399 139.753 49.3161 139.966 49.0717 140.244C48.8331 140.517 48.7138 140.881 48.7138 141.335C48.7138 141.966 48.9467 142.443 49.4126 142.767C49.8786 143.085 50.4723 143.244 51.1939 143.244ZM62.5426 137.227V145H59.9943V131.909H62.4403V134.04H62.6023C62.9034 133.347 63.375 132.79 64.017 132.369C64.6648 131.949 65.4801 131.739 66.4631 131.739C67.3551 131.739 68.1364 131.926 68.8068 132.301C69.4773 132.67 69.9972 133.222 70.3665 133.955C70.7358 134.687 70.9205 135.594 70.9205 136.673V145H68.3722V136.98C68.3722 136.031 68.125 135.29 67.6307 134.756C67.1364 134.216 66.4574 133.946 65.5938 133.946C65.0028 133.946 64.4773 134.074 64.017 134.33C63.5625 134.585 63.2017 134.96 62.9347 135.455C62.6733 135.943 62.5426 136.534 62.5426 137.227ZM78.7386 145.256C77.6818 145.256 76.7386 144.986 75.9091 144.446C75.0852 143.901 74.4375 143.125 73.9659 142.119C73.5 141.108 73.267 139.895 73.267 138.48C73.267 137.065 73.5028 135.855 73.9744 134.849C74.4517 133.844 75.1051 133.074 75.9347 132.54C76.7642 132.006 77.7045 131.739 78.7557 131.739C79.5682 131.739 80.2216 131.875 80.7159 132.148C81.2159 132.415 81.6023 132.727 81.875 133.085C82.1534 133.443 82.3693 133.759 82.5227 134.031H82.6761V127.545H85.2244V145H82.7358V142.963H82.5227C82.3693 143.241 82.1477 143.56 81.858 143.918C81.5739 144.276 81.1818 144.588 80.6818 144.855C80.1818 145.122 79.5341 145.256 78.7386 145.256ZM79.3011 143.082C80.0341 143.082 80.6534 142.889 81.1591 142.503C81.6705 142.111 82.0568 141.568 82.3182 140.875C82.5852 140.182 82.7188 139.375 82.7188 138.455C82.7188 137.545 82.5881 136.75 82.3267 136.068C82.0653 135.386 81.6818 134.855 81.1761 134.474C80.6705 134.094 80.0455 133.903 79.3011 133.903C78.5341 133.903 77.8949 134.102 77.3835 134.5C76.8722 134.898 76.4858 135.44 76.2244 136.128C75.9688 136.815 75.8409 137.591 75.8409 138.455C75.8409 139.33 75.9716 140.116 76.233 140.815C76.4943 141.514 76.8807 142.068 77.392 142.477C77.9091 142.881 78.5455 143.082 79.3011 143.082ZM88.3615 145V131.909H90.9098V145H88.3615ZM89.6484 129.889C89.2053 129.889 88.8246 129.741 88.5064 129.446C88.1939 129.145 88.0376 128.787 88.0376 128.372C88.0376 127.952 88.1939 127.594 88.5064 127.298C88.8246 126.997 89.2053 126.847 89.6484 126.847C90.0916 126.847 90.4695 126.997 90.782 127.298C91.1001 127.594 91.2592 127.952 91.2592 128.372C91.2592 128.787 91.1001 129.145 90.782 129.446C90.4695 129.741 90.0916 129.889 89.6484 129.889ZM98.7386 145.256C97.6818 145.256 96.7386 144.986 95.9091 144.446C95.0852 143.901 94.4375 143.125 93.9659 142.119C93.5 141.108 93.267 139.895 93.267 138.48C93.267 137.065 93.5028 135.855 93.9744 134.849C94.4517 133.844 95.1051 133.074 95.9347 132.54C96.7642 132.006 97.7045 131.739 98.7557 131.739C99.5682 131.739 100.222 131.875 100.716 132.148C101.216 132.415 101.602 132.727 101.875 133.085C102.153 133.443 102.369 133.759 102.523 134.031H102.676V127.545H105.224V145H102.736V142.963H102.523C102.369 143.241 102.148 143.56 101.858 143.918C101.574 144.276 101.182 144.588 100.682 144.855C100.182 145.122 99.5341 145.256 98.7386 145.256ZM99.3011 143.082C100.034 143.082 100.653 142.889 101.159 142.503C101.67 142.111 102.057 141.568 102.318 140.875C102.585 140.182 102.719 139.375 102.719 138.455C102.719 137.545 102.588 136.75 102.327 136.068C102.065 135.386 101.682 134.855 101.176 134.474C100.67 134.094 100.045 133.903 99.3011 133.903C98.5341 133.903 97.8949 134.102 97.3835 134.5C96.8722 134.898 96.4858 135.44 96.2244 136.128C95.9688 136.815 95.8409 137.591 95.8409 138.455C95.8409 139.33 95.9716 140.116 96.233 140.815C96.4943 141.514 96.8807 142.068 97.392 142.477C97.9091 142.881 98.5455 143.082 99.3011 143.082ZM112.171 145.29C111.342 145.29 110.592 145.136 109.921 144.83C109.251 144.517 108.719 144.065 108.327 143.474C107.941 142.884 107.748 142.159 107.748 141.301C107.748 140.562 107.89 139.955 108.174 139.477C108.458 139 108.842 138.622 109.325 138.344C109.808 138.065 110.347 137.855 110.944 137.713C111.54 137.571 112.148 137.463 112.768 137.389C113.552 137.298 114.188 137.224 114.677 137.168C115.165 137.105 115.521 137.006 115.742 136.869C115.964 136.733 116.075 136.511 116.075 136.205V136.145C116.075 135.401 115.864 134.824 115.444 134.415C115.029 134.006 114.41 133.801 113.586 133.801C112.728 133.801 112.052 133.991 111.558 134.372C111.069 134.747 110.731 135.165 110.543 135.625L108.148 135.08C108.433 134.284 108.847 133.642 109.393 133.153C109.944 132.659 110.577 132.301 111.293 132.08C112.009 131.852 112.762 131.739 113.552 131.739C114.075 131.739 114.629 131.801 115.214 131.926C115.805 132.045 116.356 132.267 116.867 132.591C117.384 132.915 117.808 133.378 118.137 133.98C118.467 134.577 118.631 135.352 118.631 136.307V145H116.143V143.21H116.04C115.876 143.54 115.629 143.864 115.299 144.182C114.969 144.5 114.546 144.764 114.029 144.974C113.512 145.185 112.893 145.29 112.171 145.29ZM112.725 143.244C113.43 143.244 114.032 143.105 114.532 142.827C115.038 142.548 115.421 142.185 115.683 141.736C115.95 141.281 116.083 140.795 116.083 140.278V138.591C115.992 138.682 115.816 138.767 115.555 138.847C115.299 138.92 115.006 138.986 114.677 139.043C114.347 139.094 114.026 139.142 113.714 139.188C113.401 139.227 113.14 139.261 112.93 139.29C112.435 139.352 111.984 139.457 111.575 139.605C111.171 139.753 110.847 139.966 110.603 140.244C110.364 140.517 110.245 140.881 110.245 141.335C110.245 141.966 110.478 142.443 110.944 142.767C111.41 143.085 112.004 143.244 112.725 143.244ZM127.636 131.909V133.955H120.486V131.909H127.636ZM122.403 128.773H124.952V141.156C124.952 141.651 125.026 142.023 125.173 142.273C125.321 142.517 125.511 142.685 125.744 142.776C125.983 142.861 126.241 142.903 126.52 142.903C126.724 142.903 126.903 142.889 127.057 142.861C127.21 142.832 127.33 142.81 127.415 142.793L127.875 144.898C127.727 144.955 127.517 145.011 127.244 145.068C126.972 145.131 126.631 145.165 126.222 145.17C125.551 145.182 124.926 145.062 124.347 144.812C123.767 144.562 123.298 144.176 122.94 143.653C122.582 143.131 122.403 142.474 122.403 141.685V128.773ZM135.457 145.264C134.167 145.264 133.056 144.989 132.124 144.438C131.198 143.881 130.482 143.099 129.977 142.094C129.477 141.082 129.227 139.898 129.227 138.54C129.227 137.199 129.477 136.017 129.977 134.994C130.482 133.972 131.187 133.173 132.09 132.599C132.999 132.026 134.062 131.739 135.278 131.739C136.016 131.739 136.732 131.861 137.425 132.105C138.119 132.349 138.741 132.733 139.292 133.256C139.843 133.778 140.278 134.457 140.596 135.293C140.914 136.122 141.073 137.131 141.073 138.318V139.222H130.667V137.312H138.576C138.576 136.642 138.44 136.048 138.167 135.531C137.894 135.009 137.511 134.597 137.016 134.295C136.528 133.994 135.954 133.844 135.295 133.844C134.579 133.844 133.954 134.02 133.42 134.372C132.891 134.719 132.482 135.173 132.192 135.736C131.908 136.293 131.766 136.898 131.766 137.551V139.043C131.766 139.918 131.92 140.662 132.227 141.276C132.539 141.889 132.974 142.358 133.531 142.682C134.087 143 134.738 143.159 135.482 143.159C135.965 143.159 136.406 143.091 136.803 142.955C137.201 142.812 137.545 142.602 137.835 142.324C138.124 142.045 138.346 141.702 138.499 141.293L140.911 141.727C140.718 142.437 140.371 143.06 139.871 143.594C139.377 144.122 138.755 144.534 138.005 144.83C137.261 145.119 136.411 145.264 135.457 145.264ZM145.08 145.162C144.614 145.162 144.213 144.997 143.878 144.668C143.543 144.332 143.375 143.929 143.375 143.457C143.375 142.991 143.543 142.594 143.878 142.264C144.213 141.929 144.614 141.761 145.08 141.761C145.545 141.761 145.946 141.929 146.281 142.264C146.616 142.594 146.784 142.991 146.784 143.457C146.784 143.77 146.705 144.057 146.545 144.318C146.392 144.574 146.188 144.778 145.932 144.932C145.676 145.085 145.392 145.162 145.08 145.162ZM149.697 145V131.909H152.143V134.04H152.305C152.578 133.318 153.024 132.756 153.643 132.352C154.263 131.943 155.004 131.739 155.868 131.739C156.743 131.739 157.476 131.943 158.067 132.352C158.663 132.761 159.104 133.324 159.388 134.04H159.524C159.837 133.341 160.334 132.784 161.016 132.369C161.697 131.949 162.51 131.739 163.453 131.739C164.641 131.739 165.609 132.111 166.359 132.855C167.115 133.599 167.493 134.722 167.493 136.222V145H164.945V136.46C164.945 135.574 164.703 134.932 164.22 134.534C163.737 134.136 163.161 133.938 162.49 133.938C161.661 133.938 161.016 134.193 160.555 134.705C160.095 135.21 159.865 135.861 159.865 136.656V145H157.325V136.298C157.325 135.588 157.104 135.017 156.661 134.585C156.217 134.153 155.641 133.938 154.93 133.938C154.447 133.938 154.001 134.065 153.592 134.321C153.189 134.571 152.862 134.92 152.612 135.369C152.368 135.818 152.246 136.338 152.246 136.929V145H149.697ZM176.05 145.264C174.761 145.264 173.65 144.989 172.718 144.438C171.792 143.881 171.076 143.099 170.57 142.094C170.07 141.082 169.82 139.898 169.82 138.54C169.82 137.199 170.07 136.017 170.57 134.994C171.076 133.972 171.781 133.173 172.684 132.599C173.593 132.026 174.656 131.739 175.871 131.739C176.61 131.739 177.326 131.861 178.019 132.105C178.712 132.349 179.335 132.733 179.886 133.256C180.437 133.778 180.871 134.457 181.19 135.293C181.508 136.122 181.667 137.131 181.667 138.318V139.222H171.261V137.312H179.17C179.17 136.642 179.033 136.048 178.761 135.531C178.488 135.009 178.104 134.597 177.61 134.295C177.121 133.994 176.548 133.844 175.888 133.844C175.173 133.844 174.548 134.02 174.013 134.372C173.485 134.719 173.076 135.173 172.786 135.736C172.502 136.293 172.36 136.898 172.36 137.551V139.043C172.36 139.918 172.513 140.662 172.82 141.276C173.133 141.889 173.567 142.358 174.124 142.682C174.681 143 175.332 143.159 176.076 143.159C176.559 143.159 176.999 143.091 177.397 142.955C177.795 142.812 178.138 142.602 178.428 142.324C178.718 142.045 178.94 141.702 179.093 141.293L181.505 141.727C181.312 142.437 180.965 143.06 180.465 143.594C179.971 144.122 179.349 144.534 178.599 144.83C177.854 145.119 177.005 145.264 176.05 145.264ZM183.994 145V131.909H186.457V133.989H186.594C186.832 133.284 187.253 132.73 187.855 132.327C188.463 131.918 189.151 131.713 189.918 131.713C190.077 131.713 190.264 131.719 190.48 131.73C190.702 131.741 190.875 131.756 191 131.773V134.21C190.898 134.182 190.716 134.151 190.455 134.116C190.193 134.077 189.932 134.057 189.67 134.057C189.068 134.057 188.531 134.185 188.06 134.44C187.594 134.69 187.224 135.04 186.952 135.489C186.679 135.932 186.543 136.437 186.543 137.006V145H183.994ZM197.879 145.264C196.589 145.264 195.478 144.989 194.546 144.438C193.62 143.881 192.904 143.099 192.398 142.094C191.898 141.082 191.648 139.898 191.648 138.54C191.648 137.199 191.898 136.017 192.398 134.994C192.904 133.972 193.609 133.173 194.512 132.599C195.421 132.026 196.484 131.739 197.7 131.739C198.438 131.739 199.154 131.861 199.847 132.105C200.54 132.349 201.163 132.733 201.714 133.256C202.265 133.778 202.7 134.457 203.018 135.293C203.336 136.122 203.495 137.131 203.495 138.318V139.222H193.089V137.312H200.998C200.998 136.642 200.862 136.048 200.589 135.531C200.316 135.009 199.933 134.597 199.438 134.295C198.95 133.994 198.376 133.844 197.717 133.844C197.001 133.844 196.376 134.02 195.842 134.372C195.313 134.719 194.904 135.173 194.614 135.736C194.33 136.293 194.188 136.898 194.188 137.551V139.043C194.188 139.918 194.342 140.662 194.648 141.276C194.961 141.889 195.396 142.358 195.952 142.682C196.509 143 197.16 143.159 197.904 143.159C198.387 143.159 198.827 143.091 199.225 142.955C199.623 142.812 199.967 142.602 200.256 142.324C200.546 142.045 200.768 141.702 200.921 141.293L203.333 141.727C203.14 142.437 202.793 143.06 202.293 143.594C201.799 144.122 201.177 144.534 200.427 144.83C199.683 145.119 198.833 145.264 197.879 145.264ZM211.337 145.264C210.109 145.264 209.038 144.983 208.124 144.42C207.209 143.858 206.499 143.071 205.993 142.06C205.487 141.048 205.234 139.866 205.234 138.514C205.234 137.156 205.487 135.969 205.993 134.952C206.499 133.935 207.209 133.145 208.124 132.582C209.038 132.02 210.109 131.739 211.337 131.739C212.564 131.739 213.635 132.02 214.55 132.582C215.464 133.145 216.175 133.935 216.68 134.952C217.186 135.969 217.439 137.156 217.439 138.514C217.439 139.866 217.186 141.048 216.68 142.06C216.175 143.071 215.464 143.858 214.55 144.42C213.635 144.983 212.564 145.264 211.337 145.264ZM211.345 143.125C212.141 143.125 212.8 142.915 213.322 142.494C213.845 142.074 214.232 141.514 214.482 140.815C214.737 140.116 214.865 139.347 214.865 138.506C214.865 137.67 214.737 136.903 214.482 136.205C214.232 135.5 213.845 134.935 213.322 134.509C212.8 134.082 212.141 133.869 211.345 133.869C210.544 133.869 209.879 134.082 209.351 134.509C208.828 134.935 208.439 135.5 208.183 136.205C207.933 136.903 207.808 137.67 207.808 138.506C207.808 139.347 207.933 140.116 208.183 140.815C208.439 141.514 208.828 142.074 209.351 142.494C209.879 142.915 210.544 143.125 211.345 143.125ZM229.593 135.105L227.283 135.514C227.187 135.219 227.033 134.937 226.823 134.67C226.619 134.403 226.34 134.185 225.988 134.014C225.636 133.844 225.195 133.759 224.667 133.759C223.945 133.759 223.343 133.92 222.86 134.244C222.377 134.562 222.136 134.974 222.136 135.48C222.136 135.918 222.298 136.27 222.621 136.537C222.945 136.804 223.468 137.023 224.19 137.193L226.269 137.67C227.474 137.949 228.371 138.378 228.962 138.957C229.553 139.537 229.849 140.29 229.849 141.216C229.849 142 229.621 142.699 229.167 143.312C228.718 143.92 228.09 144.398 227.283 144.744C226.482 145.091 225.553 145.264 224.496 145.264C223.031 145.264 221.835 144.952 220.908 144.327C219.982 143.696 219.414 142.801 219.204 141.642L221.667 141.267C221.82 141.909 222.136 142.395 222.613 142.724C223.09 143.048 223.712 143.21 224.479 143.21C225.315 143.21 225.982 143.037 226.482 142.69C226.982 142.338 227.232 141.909 227.232 141.403C227.232 140.994 227.079 140.651 226.772 140.372C226.471 140.094 226.008 139.884 225.383 139.741L223.167 139.256C221.945 138.977 221.042 138.534 220.457 137.926C219.877 137.318 219.587 136.548 219.587 135.616C219.587 134.844 219.803 134.168 220.235 133.588C220.667 133.009 221.263 132.557 222.025 132.233C222.786 131.903 223.658 131.739 224.641 131.739C226.056 131.739 227.17 132.045 227.982 132.659C228.795 133.267 229.332 134.082 229.593 135.105ZM233.83 145.162C233.364 145.162 232.963 144.997 232.628 144.668C232.293 144.332 232.125 143.929 232.125 143.457C232.125 142.991 232.293 142.594 232.628 142.264C232.963 141.929 233.364 141.761 233.83 141.761C234.295 141.761 234.696 141.929 235.031 142.264C235.366 142.594 235.534 142.991 235.534 143.457C235.534 143.77 235.455 144.057 235.295 144.318C235.142 144.574 234.938 144.778 234.682 144.932C234.426 145.085 234.142 145.162 233.83 145.162ZM244.089 145.264C242.8 145.264 241.689 144.989 240.757 144.438C239.831 143.881 239.115 143.099 238.609 142.094C238.109 141.082 237.859 139.898 237.859 138.54C237.859 137.199 238.109 136.017 238.609 134.994C239.115 133.972 239.82 133.173 240.723 132.599C241.632 132.026 242.695 131.739 243.911 131.739C244.649 131.739 245.365 131.861 246.058 132.105C246.751 132.349 247.374 132.733 247.925 133.256C248.476 133.778 248.911 134.457 249.229 135.293C249.547 136.122 249.706 137.131 249.706 138.318V139.222H239.3V137.312H247.209C247.209 136.642 247.072 136.048 246.8 135.531C246.527 135.009 246.143 134.597 245.649 134.295C245.161 133.994 244.587 133.844 243.928 133.844C243.212 133.844 242.587 134.02 242.053 134.372C241.524 134.719 241.115 135.173 240.825 135.736C240.541 136.293 240.399 136.898 240.399 137.551V139.043C240.399 139.918 240.553 140.662 240.859 141.276C241.172 141.889 241.607 142.358 242.163 142.682C242.72 143 243.371 143.159 244.115 143.159C244.598 143.159 245.038 143.091 245.436 142.955C245.834 142.812 246.178 142.602 246.467 142.324C246.757 142.045 246.979 141.702 247.132 141.293L249.544 141.727C249.351 142.437 249.004 143.06 248.504 143.594C248.01 144.122 247.388 144.534 246.638 144.83C245.893 145.119 245.044 145.264 244.089 145.264ZM260.326 139.571V131.909H262.883V145H260.377V142.733H260.241C259.94 143.432 259.457 144.014 258.792 144.48C258.133 144.94 257.312 145.17 256.329 145.17C255.488 145.17 254.744 144.986 254.096 144.616C253.454 144.241 252.948 143.688 252.579 142.955C252.215 142.222 252.033 141.315 252.033 140.236V131.909H254.582V139.929C254.582 140.821 254.829 141.531 255.323 142.06C255.817 142.588 256.46 142.852 257.249 142.852C257.727 142.852 258.201 142.733 258.673 142.494C259.15 142.256 259.545 141.895 259.857 141.412C260.175 140.929 260.332 140.315 260.326 139.571ZM274.496 145L270.644 131.909H273.278L275.843 141.523H275.971L278.545 131.909H281.178L283.735 141.48H283.863L286.411 131.909H289.045L285.201 145H282.602L279.942 135.548H279.746L277.087 145H274.496ZM294.773 145.29C293.943 145.29 293.193 145.136 292.523 144.83C291.852 144.517 291.321 144.065 290.929 143.474C290.543 142.884 290.349 142.159 290.349 141.301C290.349 140.562 290.491 139.955 290.776 139.477C291.06 139 291.443 138.622 291.926 138.344C292.409 138.065 292.949 137.855 293.545 137.713C294.142 137.571 294.75 137.463 295.369 137.389C296.153 137.298 296.79 137.224 297.278 137.168C297.767 137.105 298.122 137.006 298.344 136.869C298.565 136.733 298.676 136.511 298.676 136.205V136.145C298.676 135.401 298.466 134.824 298.045 134.415C297.631 134.006 297.011 133.801 296.188 133.801C295.33 133.801 294.653 133.991 294.159 134.372C293.67 134.747 293.332 135.165 293.145 135.625L290.75 135.08C291.034 134.284 291.449 133.642 291.994 133.153C292.545 132.659 293.179 132.301 293.895 132.08C294.611 131.852 295.364 131.739 296.153 131.739C296.676 131.739 297.23 131.801 297.815 131.926C298.406 132.045 298.957 132.267 299.469 132.591C299.986 132.915 300.409 133.378 300.739 133.98C301.068 134.577 301.233 135.352 301.233 136.307V145H298.744V143.21H298.642C298.477 143.54 298.23 143.864 297.901 144.182C297.571 144.5 297.148 144.764 296.631 144.974C296.114 145.185 295.494 145.29 294.773 145.29ZM295.327 143.244C296.031 143.244 296.634 143.105 297.134 142.827C297.639 142.548 298.023 142.185 298.284 141.736C298.551 141.281 298.685 140.795 298.685 140.278V138.591C298.594 138.682 298.418 138.767 298.156 138.847C297.901 138.92 297.608 138.986 297.278 139.043C296.949 139.094 296.628 139.142 296.315 139.188C296.003 139.227 295.741 139.261 295.531 139.29C295.037 139.352 294.585 139.457 294.176 139.605C293.773 139.753 293.449 139.966 293.205 140.244C292.966 140.517 292.847 140.881 292.847 141.335C292.847 141.966 293.08 142.443 293.545 142.767C294.011 143.085 294.605 143.244 295.327 143.244ZM306.675 137.227V145H304.127V131.909H306.573V134.04H306.735C307.036 133.347 307.508 132.79 308.15 132.369C308.798 131.949 309.613 131.739 310.596 131.739C311.488 131.739 312.269 131.926 312.94 132.301C313.61 132.67 314.13 133.222 314.499 133.955C314.869 134.687 315.053 135.594 315.053 136.673V145H312.505V136.98C312.505 136.031 312.258 135.29 311.763 134.756C311.269 134.216 310.59 133.946 309.727 133.946C309.136 133.946 308.61 134.074 308.15 134.33C307.695 134.585 307.335 134.96 307.067 135.455C306.806 135.943 306.675 136.534 306.675 137.227ZM324.082 131.909V133.955H316.931V131.909H324.082ZM318.849 128.773H321.397V141.156C321.397 141.651 321.471 142.023 321.619 142.273C321.766 142.517 321.957 142.685 322.19 142.776C322.428 142.861 322.687 142.903 322.965 142.903C323.17 142.903 323.349 142.889 323.502 142.861C323.656 142.832 323.775 142.81 323.86 142.793L324.32 144.898C324.173 144.955 323.962 145.011 323.69 145.068C323.417 145.131 323.076 145.165 322.667 145.17C321.996 145.182 321.371 145.062 320.792 144.812C320.212 144.562 319.744 144.176 319.386 143.653C319.028 143.131 318.849 142.474 318.849 141.685V128.773ZM335.999 135.105L333.69 135.514C333.593 135.219 333.44 134.937 333.229 134.67C333.025 134.403 332.746 134.185 332.394 134.014C332.042 133.844 331.602 133.759 331.073 133.759C330.352 133.759 329.749 133.92 329.266 134.244C328.783 134.562 328.542 134.974 328.542 135.48C328.542 135.918 328.704 136.27 329.028 136.537C329.352 136.804 329.874 137.023 330.596 137.193L332.675 137.67C333.88 137.949 334.778 138.378 335.369 138.957C335.96 139.537 336.255 140.29 336.255 141.216C336.255 142 336.028 142.699 335.573 143.312C335.124 143.92 334.496 144.398 333.69 144.744C332.888 145.091 331.96 145.264 330.903 145.264C329.437 145.264 328.241 144.952 327.315 144.327C326.388 143.696 325.82 142.801 325.61 141.642L328.073 141.267C328.227 141.909 328.542 142.395 329.019 142.724C329.496 143.048 330.119 143.21 330.886 143.21C331.721 143.21 332.388 143.037 332.888 142.69C333.388 142.338 333.638 141.909 333.638 141.403C333.638 140.994 333.485 140.651 333.178 140.372C332.877 140.094 332.414 139.884 331.789 139.741L329.573 139.256C328.352 138.977 327.448 138.534 326.863 137.926C326.283 137.318 325.994 136.548 325.994 135.616C325.994 134.844 326.21 134.168 326.641 133.588C327.073 133.009 327.67 132.557 328.431 132.233C329.192 131.903 330.065 131.739 331.048 131.739C332.462 131.739 333.576 132.045 334.388 132.659C335.201 133.267 335.738 134.082 335.999 135.105ZM350.519 131.909V133.955H343.369V131.909H350.519ZM345.286 128.773H347.835V141.156C347.835 141.651 347.908 142.023 348.056 142.273C348.204 142.517 348.394 142.685 348.627 142.776C348.866 142.861 349.124 142.903 349.403 142.903C349.607 142.903 349.786 142.889 349.94 142.861C350.093 142.832 350.212 142.81 350.298 142.793L350.758 144.898C350.61 144.955 350.4 145.011 350.127 145.068C349.854 145.131 349.513 145.165 349.104 145.17C348.434 145.182 347.809 145.062 347.229 144.812C346.65 144.562 346.181 144.176 345.823 143.653C345.465 143.131 345.286 142.474 345.286 141.685V128.773ZM358.212 145.264C356.984 145.264 355.913 144.983 354.999 144.42C354.084 143.858 353.374 143.071 352.868 142.06C352.362 141.048 352.109 139.866 352.109 138.514C352.109 137.156 352.362 135.969 352.868 134.952C353.374 133.935 354.084 133.145 354.999 132.582C355.913 132.02 356.984 131.739 358.212 131.739C359.439 131.739 360.51 132.02 361.425 132.582C362.339 133.145 363.05 133.935 363.555 134.952C364.061 135.969 364.314 137.156 364.314 138.514C364.314 139.866 364.061 141.048 363.555 142.06C363.05 143.071 362.339 143.858 361.425 144.42C360.51 144.983 359.439 145.264 358.212 145.264ZM358.22 143.125C359.016 143.125 359.675 142.915 360.197 142.494C360.72 142.074 361.107 141.514 361.357 140.815C361.612 140.116 361.74 139.347 361.74 138.506C361.74 137.67 361.612 136.903 361.357 136.205C361.107 135.5 360.72 134.935 360.197 134.509C359.675 134.082 359.016 133.869 358.22 133.869C357.419 133.869 356.754 134.082 356.226 134.509C355.703 134.935 355.314 135.5 355.058 136.205C354.808 136.903 354.683 137.67 354.683 138.506C354.683 139.347 354.808 140.116 355.058 140.815C355.314 141.514 355.703 142.074 356.226 142.494C356.754 142.915 357.419 143.125 358.22 143.125Z" fill="#545454"/>
<rect x="343" y="245" width="130" height="64" rx="5" stroke="#EDEFF8" stroke-width="2"/>
<path d="M377.675 286.5H374.646L381.451 267.591H384.747L391.552 286.5H388.523L383.178 271.026H383.03L377.675 286.5ZM378.183 279.095H388.006V281.496H378.183V279.095ZM396.822 267.591V286.5H394.061V267.591H396.822ZM403.296 267.591V286.5H400.536V267.591H403.296ZM412.984 286.786C411.654 286.786 410.494 286.482 409.503 285.872C408.512 285.263 407.743 284.41 407.195 283.315C406.647 282.219 406.373 280.939 406.373 279.474C406.373 278.003 406.647 276.716 407.195 275.614C407.743 274.513 408.512 273.657 409.503 273.048C410.494 272.438 411.654 272.134 412.984 272.134C414.313 272.134 415.474 272.438 416.465 273.048C417.456 273.657 418.225 274.513 418.773 275.614C419.321 276.716 419.595 278.003 419.595 279.474C419.595 280.939 419.321 282.219 418.773 283.315C418.225 284.41 417.456 285.263 416.465 285.872C415.474 286.482 414.313 286.786 412.984 286.786ZM412.993 284.469C413.855 284.469 414.569 284.241 415.135 283.786C415.701 283.33 416.12 282.724 416.391 281.967C416.668 281.21 416.806 280.375 416.806 279.464C416.806 278.56 416.668 277.729 416.391 276.972C416.12 276.208 415.701 275.596 415.135 275.134C414.569 274.673 413.855 274.442 412.993 274.442C412.125 274.442 411.405 274.673 410.833 275.134C410.266 275.596 409.845 276.208 409.568 276.972C409.297 277.729 409.161 278.56 409.161 279.464C409.161 280.375 409.297 281.21 409.568 281.967C409.845 282.724 410.266 283.33 410.833 283.786C411.405 284.241 412.125 284.469 412.993 284.469ZM425.319 286.5L421.146 272.318H423.999L426.778 282.733H426.916L429.705 272.318H432.558L435.328 282.687H435.466L438.227 272.318H441.08L436.916 286.5H434.1L431.219 276.261H431.007L428.126 286.5H425.319Z" fill="#3885EB"/>
<rect x="491" y="245" width="130" height="64" rx="5" stroke="#EDEFF8" stroke-width="2"/>
<path d="M523.577 286.5V267.591H530.502C531.844 267.591 532.955 267.812 533.835 268.256C534.715 268.693 535.374 269.287 535.811 270.038C536.248 270.782 536.467 271.623 536.467 272.558C536.467 273.346 536.322 274.011 536.033 274.553C535.743 275.088 535.356 275.519 534.869 275.845C534.389 276.165 533.86 276.399 533.281 276.547V276.732C533.909 276.762 534.522 276.965 535.119 277.341C535.722 277.71 536.22 278.237 536.614 278.92C537.008 279.603 537.205 280.434 537.205 281.413C537.205 282.379 536.978 283.247 536.522 284.016C536.073 284.78 535.377 285.386 534.435 285.835C533.494 286.278 532.29 286.5 530.825 286.5H523.577ZM526.43 284.053H530.548C531.915 284.053 532.893 283.789 533.484 283.259C534.075 282.73 534.371 282.068 534.371 281.274C534.371 280.677 534.22 280.129 533.918 279.631C533.617 279.132 533.186 278.735 532.626 278.44C532.072 278.144 531.413 277.996 530.65 277.996H526.43V284.053ZM526.43 275.771H530.253C530.893 275.771 531.469 275.648 531.979 275.402C532.496 275.156 532.906 274.811 533.207 274.368C533.515 273.919 533.669 273.389 533.669 272.78C533.669 271.998 533.395 271.343 532.847 270.813C532.299 270.284 531.459 270.019 530.327 270.019H526.43V275.771ZM543.128 267.591V286.5H540.368V267.591H543.128ZM552.816 286.786C551.486 286.786 550.326 286.482 549.335 285.872C548.344 285.263 547.575 284.41 547.027 283.315C546.479 282.219 546.205 280.939 546.205 279.474C546.205 278.003 546.479 276.716 547.027 275.614C547.575 274.513 548.344 273.657 549.335 273.048C550.326 272.438 551.486 272.134 552.816 272.134C554.145 272.134 555.306 272.438 556.297 273.048C557.288 273.657 558.057 274.513 558.605 275.614C559.153 276.716 559.427 278.003 559.427 279.474C559.427 280.939 559.153 282.219 558.605 283.315C558.057 284.41 557.288 285.263 556.297 285.872C555.306 286.482 554.145 286.786 552.816 286.786ZM552.825 284.469C553.687 284.469 554.401 284.241 554.967 283.786C555.533 283.33 555.952 282.724 556.223 281.967C556.5 281.21 556.638 280.375 556.638 279.464C556.638 278.56 556.5 277.729 556.223 276.972C555.952 276.208 555.533 275.596 554.967 275.134C554.401 274.673 553.687 274.442 552.825 274.442C551.957 274.442 551.237 274.673 550.665 275.134C550.098 275.596 549.677 276.208 549.4 276.972C549.129 277.729 548.993 278.56 548.993 279.464C548.993 280.375 549.129 281.21 549.4 281.967C549.677 282.724 550.098 283.33 550.665 283.786C551.237 284.241 551.957 284.469 552.825 284.469ZM568.482 286.786C567.109 286.786 565.927 286.475 564.936 285.854C563.952 285.226 563.194 284.361 562.665 283.259C562.136 282.157 561.871 280.896 561.871 279.474C561.871 278.033 562.142 276.762 562.684 275.661C563.225 274.553 563.989 273.688 564.973 273.066C565.958 272.444 567.118 272.134 568.454 272.134C569.531 272.134 570.492 272.334 571.335 272.734C572.178 273.128 572.858 273.682 573.375 274.396C573.899 275.11 574.209 275.944 574.308 276.898H571.621C571.473 276.233 571.135 275.661 570.605 275.18C570.082 274.7 569.381 274.46 568.5 274.46C567.731 274.46 567.057 274.663 566.478 275.07C565.906 275.47 565.46 276.042 565.14 276.787C564.819 277.526 564.659 278.4 564.659 279.409C564.659 280.443 564.816 281.336 565.13 282.087C565.444 282.838 565.887 283.419 566.46 283.832C567.038 284.244 567.719 284.45 568.5 284.45C569.024 284.45 569.498 284.355 569.922 284.164C570.353 283.967 570.713 283.687 571.002 283.324C571.298 282.961 571.504 282.524 571.621 282.013H574.308C574.209 282.93 573.911 283.749 573.412 284.469C572.914 285.189 572.246 285.755 571.409 286.168C570.578 286.58 569.602 286.786 568.482 286.786ZM579.799 281.69L579.781 278.32H580.261L585.911 272.318H589.217L582.772 279.151H582.338L579.799 281.69ZM577.26 286.5V267.591H580.021V286.5H577.26ZM586.216 286.5L581.138 279.76L583.04 277.83L589.605 286.5H586.216Z" fill="#3885EB"/>
<path d="M622 111.867L615.467 118.4C615.222 118.645 614.911 118.767 614.533 118.767C614.156 118.767 613.845 118.645 613.6 118.4C613.356 118.156 613.233 117.845 613.233 117.467C613.233 117.089 613.356 116.778 613.6 116.533L620.133 110L613.6 103.467C613.356 103.222 613.233 102.911 613.233 102.533C613.233 102.156 613.356 101.845 613.6 101.6C613.845 101.356 614.156 101.233 614.533 101.233C614.911 101.233 615.222 101.356 615.467 101.6L622 108.133L628.533 101.6C628.778 101.356 629.089 101.233 629.467 101.233C629.845 101.233 630.156 101.356 630.4 101.6C630.645 101.845 630.767 102.156 630.767 102.533C630.767 102.911 630.645 103.222 630.4 103.467L623.867 110L630.4 116.533C630.645 116.778 630.767 117.089 630.767 117.467C630.767 117.845 630.645 118.156 630.4 118.4C630.156 118.645 629.845 118.767 629.467 118.767C629.089 118.767 628.778 118.645 628.533 118.4L622 111.867Z" fill="#545454"/>
</svg>
