<svg width="67" height="61" viewBox="0 0 67 61" fill="none" xmlns="http://www.w3.org/2000/svg">
<path d="M16.4963 6.89766L16.1179 7.2245L16.4963 6.89766ZM22.7922 14.1868L23.2086 13.91L23.1912 13.8838L23.1706 13.8599L22.7922 14.1868ZM61.8131 15.5494L61.8044 16.0493L61.8625 16.0503L61.9192 16.038L61.8131 15.5494ZM47.415 7.57914L47.5763 7.10586L47.5157 7.08521L47.4519 7.08049L47.415 7.57914ZM18.8438 5.46908L18.7982 5.96707L18.807 5.96773L18.8438 5.46908ZM16.1179 7.2245L22.4138 14.5136L23.1706 13.8599L16.8746 6.57083L16.1179 7.2245ZM22.3758 14.4636C22.6636 14.8966 23.3189 15.3811 24.337 15.7098C25.3714 16.0437 26.8184 16.2307 28.7512 16.0325L28.6492 15.0377C26.8284 15.2244 25.524 15.0421 24.6442 14.7581C23.7481 14.4688 23.3261 14.0868 23.2086 13.91L22.3758 14.4636ZM28.7512 16.0325C30.5941 15.8435 36.4689 15.8049 43.1092 15.836C49.7314 15.867 57.069 15.9668 61.8044 16.0493L61.8219 15.0494C57.0836 14.9669 49.7415 14.867 43.1139 14.836C36.5046 14.805 30.5597 14.8418 28.6492 15.0377L28.7512 16.0325ZM61.9192 16.038C62.1797 15.9814 62.4786 15.8779 62.731 15.7073C62.9823 15.5375 63.2451 15.2583 63.2858 14.8483C63.3259 14.4433 63.1337 14.0592 62.8187 13.7118C62.5008 13.3614 62.0069 12.9893 61.3037 12.5861L60.8063 13.4537C61.4667 13.8323 61.8599 14.1432 62.078 14.3836C62.2988 14.6272 62.2914 14.7418 62.2906 14.7497C62.2904 14.7526 62.2866 14.8007 62.171 14.8789C62.0566 14.9562 61.8884 15.0214 61.7071 15.0607L61.9192 16.038ZM61.3037 12.5861C59.9018 11.7826 57.3093 10.7003 54.6711 9.68259C52.021 8.66028 49.2865 7.68867 47.5763 7.10586L47.2537 8.05241C48.9538 8.63179 51.6756 9.59889 54.3111 10.6156C56.9585 11.6368 59.4808 12.6939 60.8063 13.4537L61.3037 12.5861ZM47.4519 7.08049L18.8806 4.97044L18.807 5.96773L47.3782 8.07778L47.4519 7.08049ZM18.8895 4.97117C18.2286 4.9106 17.2456 4.90089 16.5628 5.12906C16.2366 5.23807 15.8133 5.45721 15.6802 5.91594C15.5451 6.3814 15.7819 6.83549 16.1179 7.2245L16.8746 6.57083C16.5939 6.2458 16.6537 6.14944 16.6406 6.1946C16.6294 6.23302 16.627 6.16199 16.8798 6.07751C17.355 5.91869 18.1626 5.90874 18.7982 5.967L18.8895 4.97117Z" fill="#C1C4CA"/>
<path d="M62.1558 13.0746C61.9163 12.9373 61.6107 13.0202 61.4734 13.2597C61.3361 13.4993 61.4189 13.8049 61.6585 13.9422L62.1558 13.0746ZM62.5616 25.207L63.001 25.4455L63.012 25.4253L63.021 25.4042L62.5616 25.207ZM25.6767 21.1056L25.7754 20.6155L25.7566 20.6117L25.7375 20.6093L25.6767 21.1056ZM15.1203 10.5817L14.6839 10.8258L14.6912 10.8387L14.6991 10.8512L15.1203 10.5817ZM15.8454 10.1286C16.1161 10.1832 16.3797 10.0079 16.4343 9.73721C16.4888 9.4665 16.3135 9.20285 16.0428 9.14833L15.8454 10.1286ZM61.6585 13.9422C61.8087 14.0283 62.1147 14.3039 62.4421 14.8254C62.7613 15.334 63.0815 16.0464 63.2831 16.9659C63.6851 18.7992 63.6193 21.4748 62.1021 25.0098L63.021 25.4042C64.6086 21.7054 64.7127 18.8167 64.2599 16.7517C64.0341 15.7219 63.6707 14.9017 63.289 14.2937C62.9153 13.6985 62.5028 13.2735 62.1558 13.0746L61.6585 13.9422ZM62.1221 24.9685C61.6787 25.7855 61.0568 26.3707 59.9161 26.6483C58.7328 26.9364 56.9695 26.8981 54.2503 26.3505L54.0529 27.3308C56.8156 27.8872 58.7533 27.9606 60.1526 27.62C61.5945 27.269 62.4367 26.4853 63.001 25.4455L62.1221 24.9685ZM54.2503 26.3505L25.7754 20.6155L25.578 21.5958L54.0529 27.3308L54.2503 26.3505ZM25.7375 20.6093C25.1097 20.5324 24.0717 20.3014 23.0443 19.8622C22.0092 19.4198 21.0465 18.7923 20.4918 17.9578L19.659 18.5114C20.369 19.5795 21.5369 20.3054 22.6512 20.7817C23.7732 21.2613 24.9036 21.5146 25.6159 21.6019L25.7375 20.6093ZM20.4918 17.9578C19.23 16.0595 16.6667 12.0711 15.5415 10.3123L14.6991 10.8512C15.8235 12.6087 18.3915 16.6045 19.659 18.5114L20.4918 17.9578ZM15.5567 10.3377C15.5164 10.2655 15.4831 10.184 15.467 10.1134C15.4494 10.0358 15.4631 10.0197 15.4545 10.042C15.4483 10.0581 15.4359 10.078 15.4177 10.094C15.4006 10.1091 15.3921 10.1086 15.4084 10.1039C15.4507 10.0916 15.5779 10.0748 15.8454 10.1286L16.0428 9.14833C15.7012 9.07953 15.3918 9.06722 15.129 9.14368C14.8407 9.22757 14.6242 9.41607 14.5216 9.68174C14.4302 9.91842 14.4518 10.1581 14.4919 10.3348C14.5335 10.5184 14.6078 10.6896 14.6839 10.8258L15.5567 10.3377Z" fill="#C1C4CA"/>
<path d="M15.9442 9.63843L16.4655 7.0498" stroke="#C1C4CA" stroke-linecap="round"/>
<path d="M16.1395 10.2264C15.9597 10.0169 15.644 9.99284 15.4345 10.1727C15.2249 10.3526 15.2009 10.6682 15.3807 10.8778L16.1395 10.2264ZM21.0219 16.6822L21.4052 16.3611L21.4013 16.3566L21.0219 16.6822ZM26.3493 19.3397L26.272 19.8337L26.3493 19.3397ZM57.3219 25.2608L57.212 25.7486L57.3219 25.2608ZM61.4079 22.281L60.93 22.134L61.4079 22.281ZM60.9675 15.0274C60.6968 14.9728 60.4331 15.1481 60.3786 15.4188C60.3241 15.6895 60.4993 15.9532 60.77 16.0077L60.9675 15.0274ZM15.3807 10.8778L20.6425 17.0079L21.4013 16.3566L16.1395 10.2264L15.3807 10.8778ZM20.6386 17.0033C20.9681 17.3966 21.458 17.9723 22.3377 18.515C23.2142 19.0556 24.4518 19.5487 26.272 19.8337L26.4266 18.8457C24.7139 18.5775 23.6071 18.1231 22.8628 17.6639C22.1217 17.2068 21.7144 16.7302 21.4052 16.3611L20.6386 17.0033ZM26.272 19.8337C29.7356 20.3759 48.3831 23.7594 57.212 25.7486L57.4318 24.773C48.5775 22.7782 29.9078 19.3907 26.4266 18.8457L26.272 19.8337ZM57.212 25.7486C57.9483 25.9145 58.8743 25.9244 59.7553 25.439C60.6417 24.9506 61.4004 24.0063 61.8858 22.428L60.93 22.134C60.4976 23.5398 59.871 24.2335 59.2727 24.5631C58.669 24.8958 58.0109 24.9035 57.4318 24.773L57.212 25.7486ZM61.8858 22.428C62.4882 20.4696 62.7536 18.786 62.6534 17.526C62.5553 16.2916 62.0712 15.2497 60.9675 15.0274L60.77 16.0077C61.189 16.0921 61.5687 16.5004 61.6565 17.6053C61.7423 18.6846 61.5159 20.2294 60.93 22.134L61.8858 22.428Z" fill="#C1C4CA"/>
<path d="M15.6675 12.7849C15.9416 12.818 16.1907 12.6225 16.2237 12.3484C16.2568 12.0742 16.0613 11.8252 15.7872 11.7921L15.6675 12.7849ZM9.84897 11.5799L9.75025 12.0701L9.76957 12.074L9.78913 12.0764L9.84897 11.5799ZM6.61416 15.8404L7.07544 16.0333L7.07544 16.0333L6.61416 15.8404ZM7.70753 18.2789L8.10471 17.9749L8.09716 17.9655L7.70753 18.2789ZM13.3315 26.4503C13.4993 26.6696 13.8131 26.7113 14.0324 26.5435C14.2517 26.3756 14.2934 26.0618 14.1256 25.8425L13.3315 26.4503ZM15.7872 11.7921L9.90881 11.0835L9.78913 12.0764L15.6675 12.7849L15.7872 11.7921ZM9.94769 11.0898C9.48244 10.9961 8.76188 10.9654 8.10511 11.2058C7.41205 11.4594 6.79471 12.0206 6.66991 13.0386L7.66248 13.1603C7.73482 12.5702 8.0528 12.2898 8.44882 12.1448C8.88112 11.9866 9.40338 12.0002 9.75025 12.0701L9.94769 11.0898ZM6.66991 13.0386C6.47451 14.6327 6.22807 15.4677 6.15289 15.6474L7.07544 16.0333C7.204 15.7259 7.46361 14.7826 7.66248 13.1603L6.66991 13.0386ZM6.15289 15.6474C5.91598 16.2138 6.07221 16.7566 6.32138 17.2171C6.56477 17.6669 6.95037 18.1352 7.3179 18.5922L8.09716 17.9655C7.70439 17.4771 7.39051 17.0916 7.20088 16.7412C7.01705 16.4014 7.00673 16.1976 7.07544 16.0333L6.15289 15.6474ZM7.31046 18.5827L13.3315 26.4503L14.1256 25.8425L8.1046 17.975L7.31046 18.5827Z" fill="#C1C4CA"/>
<path d="M15.962 18.9905L13.7285 26.1462" stroke="#C1C4CA" stroke-linecap="round"/>
<path d="M15.962 18.9905L8.81268 12.0049" stroke="#C1C4CA" stroke-linecap="round"/>
<path d="M15.7791 19.1123L21.079 19.5459" stroke="#C1C4CA" stroke-linecap="round"/>
<path d="M13.7285 26.1462L56.4853 35.7084" stroke="#C1C4CA" stroke-linecap="round"/>
<path d="M58.4766 27.3948L56.516 35.5562" stroke="#C1C4CA" stroke-linecap="round"/>
<circle cx="20.1589" cy="24.114" r="0.93198" transform="rotate(11.3873 20.1589 24.114)" fill="#C1C4CA"/>
<circle cx="23.4369" cy="33.0134" r="0.93198" transform="rotate(11.3873 23.4369 33.0134)" fill="#C1C4CA"/>
<circle cx="52.8065" cy="30.3725" r="0.93198" transform="rotate(11.3873 52.8065 30.3725)" fill="#C1C4CA"/>
<circle cx="56.5709" cy="40.0037" r="0.93198" transform="rotate(11.3873 56.5709 40.0037)" fill="#C1C4CA"/>
<path d="M9.75277 25.6113C9.59515 25.3846 9.28356 25.3286 9.05682 25.4862C8.83009 25.6438 8.77406 25.9554 8.93168 26.1821L9.75277 25.6113ZM15.3622 34.5563L15.7786 34.2794L15.7727 34.2709L15.3622 34.5563ZM59.6898 44.9448C59.9599 45.0023 60.2255 44.8299 60.283 44.5599C60.3405 44.2898 60.1681 44.0242 59.898 43.9667L59.6898 44.9448ZM8.93168 26.1821L14.9516 34.8417L15.7727 34.2709L9.75277 25.6113L8.93168 26.1821ZM14.9458 34.8331C15.4699 35.6215 16.4954 36.1994 18.0459 36.7314C19.6175 37.2706 21.8384 37.7967 24.8851 38.4103L25.0826 37.43C22.0384 36.8169 19.8741 36.3014 18.3704 35.7855C16.8455 35.2623 16.1057 34.7716 15.7786 34.2795L14.9458 34.8331ZM24.8851 38.4103C30.5702 39.5553 50.4555 42.9791 59.6898 44.9448L59.898 43.9667C50.6976 42.0083 30.6707 38.5555 25.0826 37.43L24.8851 38.4103Z" fill="#C1C4CA"/>
<path d="M61.5103 36.7204L59.7939 44.4556" stroke="#C1C4CA" stroke-linecap="round"/>
<path d="M61.5103 36.7205L57.2192 33.6379" stroke="#C1C4CA" stroke-linecap="round"/>
<path d="M10.9612 22.5784C10.828 23.5023 10.2933 25.4228 9.22062 25.7138" stroke="#C1C4CA" stroke-linecap="round"/>
<path d="M18.9412 27.3326C18.8021 27.094 18.4959 27.0134 18.2574 27.1525C18.0188 27.2916 17.9382 27.5977 18.0773 27.8363L18.9412 27.3326ZM18.1687 31.6355L17.7101 31.4363L18.1687 31.6355ZM15.5822 33.7775C15.3204 33.6898 15.037 33.831 14.9494 34.0928C14.8617 34.3547 15.0029 34.638 15.2647 34.7257L15.5822 33.7775ZM18.0773 27.8363C18.2838 28.1905 18.5581 29.4844 17.7101 31.4363L18.6273 31.8347C19.5516 29.707 19.3627 28.0555 18.9412 27.3326L18.0773 27.8363ZM17.7101 31.4363C17.3669 32.2263 17.0035 32.9159 16.6092 33.3566C16.2235 33.7879 15.9062 33.886 15.5822 33.7775L15.2647 34.7257C16.1282 35.0149 16.8376 34.6013 17.3546 34.0233C17.863 33.4548 18.2785 32.6376 18.6273 31.8347L17.7101 31.4363Z" fill="#C1C4CA"/>
<path d="M61.4796 36.8727L55.8762 35.5857" stroke="#C1C4CA" stroke-linecap="round"/>
<path d="M12.5346 30.5008L5.06788 32.9582" stroke="#C1C4CA" stroke-linecap="round"/>
<path d="M5.06786 32.9581C3.72523 34.6419 1.16577 39.5876 1.54635 46.5093" stroke="#C1C4CA" stroke-linecap="round"/>
<path d="M1.82921 46.0573C1.56265 45.9852 1.28811 46.1428 1.21601 46.4094C1.14391 46.676 1.30155 46.9505 1.56812 47.0226L1.82921 46.0573ZM36.109 55.8471L35.9785 56.3298L35.9884 56.3324L35.9984 56.3347L36.109 55.8471ZM54.3493 49.7299C54.5747 49.5704 54.628 49.2583 54.4685 49.0329C54.3089 48.8076 53.9969 48.7542 53.7715 48.9138L54.3493 49.7299ZM1.56812 47.0226L35.9785 56.3298L36.2396 55.3644L1.82921 46.0573L1.56812 47.0226ZM35.9984 56.3347C37.0623 56.5761 38.7952 56.8442 40.564 56.8694C42.3096 56.8943 44.1937 56.6856 45.4811 55.8885L44.9547 55.0383C43.925 55.6759 42.29 55.894 40.5782 55.8695C38.8895 55.8454 37.2266 55.588 36.2197 55.3595L35.9984 56.3347ZM45.4811 55.8885C47.8157 54.443 52.3316 51.1584 54.3493 49.7299L53.7715 48.9138C51.7236 50.3636 47.2543 53.6144 44.9547 55.0383L45.4811 55.8885Z" fill="#C1C4CA"/>
<path d="M54.0604 49.3221L54.9804 44.7539" stroke="#C1C4CA" stroke-linecap="round"/>
<path d="M55.1166 44.9993C55.3533 44.8569 55.4297 44.5497 55.2873 44.3131C55.1449 44.0765 54.8377 44.0001 54.6011 44.1424L55.1166 44.9993ZM44.4017 50.8625L44.1439 50.4341L44.12 50.4485L44.0978 50.4655L44.4017 50.8625ZM10.1807 36.6816L10.3948 36.2297L10.3861 36.2258L10.1807 36.6816ZM4.60258 39.2025L5.07784 39.3578L5.08384 39.3395L5.0884 39.3207L4.60258 39.2025ZM37.4531 53.1074L37.581 52.624L37.5731 52.622L37.4531 53.1074ZM51.1771 51.9702C51.4138 51.8281 51.4906 51.521 51.3485 51.2842C51.2064 51.0475 50.8992 50.9707 50.6625 51.1128L51.1771 51.9702ZM54.6011 44.1424L44.1439 50.4341L44.6594 51.291L55.1166 44.9993L54.6011 44.1424ZM44.0978 50.4655C43.9902 50.5478 43.6235 50.72 42.9528 50.7393C42.2973 50.7581 41.3791 50.6287 40.204 50.1499L39.8267 51.0759C41.1116 51.5996 42.168 51.7623 42.9815 51.7389C43.7796 51.716 44.376 51.5118 44.7055 51.2596L44.0978 50.4655ZM40.204 50.1499C37.761 49.1543 19.3265 40.4615 10.3947 36.2298L9.96659 37.1335C18.8746 41.3539 37.3497 50.0665 39.8267 51.0759L40.204 50.1499ZM10.3861 36.2258C9.4963 35.8247 8.20932 35.4623 6.98515 35.7531C5.70077 36.0582 4.61183 37.05 4.11676 39.0842L5.0884 39.3207C5.51231 37.5788 6.36505 36.9282 7.21629 36.726C8.12773 36.5095 9.1703 36.7747 9.97521 37.1374L10.3861 36.2258ZM4.12731 39.0472C3.83682 39.9361 3.57722 41.3305 3.7634 42.6343C3.95203 43.9551 4.62134 45.2685 6.25088 45.7467L6.53251 44.7872C5.40931 44.4576 4.90876 43.5811 4.75336 42.4929C4.59552 41.3876 4.81773 40.1538 5.07784 39.3578L4.12731 39.0472ZM6.25088 45.7467C9.01721 46.5587 28.1357 51.3183 37.3331 53.5928L37.5731 52.622C28.3568 50.3428 9.27167 45.5912 6.53251 44.7872L6.25088 45.7467ZM37.3252 53.5908C39.8541 54.2599 44.8634 55.7594 51.1771 51.9702L50.6625 51.1128C44.7202 54.6791 40.0665 53.2817 37.581 52.624L37.3252 53.5908Z" fill="#C1C4CA"/>
</svg>
