<svg width="109" height="115" viewBox="0 0 109 115" fill="none" xmlns="http://www.w3.org/2000/svg">
<path d="M58.0892 100.003C57.8729 99.8317 57.5584 99.8678 57.3867 100.084C57.2151 100.3 57.2512 100.615 57.4675 100.787L58.0892 100.003ZM75.0213 94.8478C75.1136 94.5875 74.9774 94.3017 74.7172 94.2094C74.4569 94.1171 74.1711 94.2533 74.0788 94.5136L75.0213 94.8478ZM57.4675 100.787C59.5752 102.46 62.9362 103.822 66.307 103.329C69.728 102.83 73.0385 100.439 75.0213 94.8478L74.0788 94.5136C72.1943 99.8279 69.1466 101.904 66.1625 102.34C63.1281 102.783 60.0369 101.549 58.0892 100.003L57.4675 100.787Z" fill="#C1C4CA"/>
<path d="M55.2935 96.9257C58.9943 97.665 67.852 97.4574 73.6768 90.7133" stroke="#C1C4CA" stroke-linecap="round"/>
<path d="M53.1808 93.5182C57.2332 94.443 67.0965 94.4424 74.1308 87.0419" stroke="#C1C4CA" stroke-linecap="round"/>
<path d="M44.9765 78.3986L44.7249 78.8307L44.9765 78.3986ZM34.7609 33.3564L34.3785 33.0342L34.7609 33.3564ZM75.264 42.7294L75.7236 42.5326L75.264 42.7294ZM72.112 69.6571L72.5623 69.8746L72.5647 69.8695L72.112 69.6571ZM72.4429 81.9041L72.9111 81.7286L72.4429 81.9041ZM71.6045 85.6545L71.9071 86.0525L71.6045 85.6545ZM54.5115 90.7749L54.5418 90.2758L54.5115 90.7749ZM52.2795 88.4393C51.1228 84.8628 49.5663 80.4924 45.2281 77.9665L44.7249 78.8307C48.7001 81.1451 50.1669 85.1567 51.328 88.747L52.2795 88.4393ZM45.2281 77.9665C43.9804 77.24 36.4313 72.0524 31.7226 64.088C29.3734 60.1146 27.744 55.4721 27.9346 50.359C28.125 45.2523 30.1324 39.6255 35.1433 33.6786L34.3785 33.0342C29.2456 39.126 27.1351 44.9608 26.9353 50.3217C26.7357 55.6763 28.444 60.5075 30.8618 64.597C35.687 72.7583 43.3895 78.0531 44.7249 78.8307L45.2281 77.9665ZM35.1433 33.6786C40.4816 27.343 48.6748 25.6903 56.4295 27.6202C64.1884 29.5511 71.4338 35.056 74.8043 42.9263L75.7236 42.5326C72.2167 34.344 64.6997 28.6479 56.671 26.6498C48.6381 24.6507 40.0184 26.341 34.3785 33.0342L35.1433 33.6786ZM74.8043 42.9263C76.0229 45.7716 76.3296 50.0884 75.7715 54.8876C75.2152 59.6721 73.8068 64.8702 71.6594 69.4446L72.5647 69.8695C74.7606 65.1916 76.1968 59.8882 76.7648 55.0031C77.3312 50.1327 77.0423 45.6118 75.7236 42.5326L74.8043 42.9263ZM71.6618 69.4396C70.7377 71.3524 69.7702 76.1994 71.9748 82.0797L72.9111 81.7286C70.7982 76.093 71.7621 71.5307 72.5623 69.8746L71.6618 69.4396ZM71.3019 85.2565C68.0348 87.7404 62.0288 90.7304 54.5418 90.2758L54.4812 91.274C62.2654 91.7466 68.5017 88.6416 71.9071 86.0525L71.3019 85.2565ZM71.9748 82.0797C72.4256 83.2822 72.2093 84.5665 71.3019 85.2565L71.9071 86.0525C73.2743 85.013 73.4634 83.2016 72.9111 81.7286L71.9748 82.0797ZM51.328 88.747C51.7761 90.1325 52.984 91.1831 54.4812 91.274L54.5418 90.2758C53.4982 90.2125 52.6147 89.4757 52.2795 88.4393L51.328 88.747Z" fill="#C1C4CA"/>
<path d="M45.8298 68.6489C44.6432 65.1599 42.2482 56.6535 41.8276 47.193C41.824 47.1106 41.85 47.0302 41.9024 46.9665C45.2331 42.9146 50.985 38.4608 54.2194 36.1887C54.4978 35.9932 54.8583 36.2945 54.7323 36.6106C52.033 43.3838 52.2565 51.3367 52.8285 55.3707C52.8734 55.6875 53.2997 55.7566 53.471 55.4864C55.9724 51.5421 60.8116 48.5988 63.5564 47.3218C63.8188 47.1997 64.0892 47.4534 64.0002 47.7288C59.8224 60.6491 59.0519 72.3233 59.2043 77.6797C59.2141 78.0243 58.7665 78.1651 58.5884 77.8699C55.6291 72.9642 54.1973 66.8397 53.7623 63.7618C53.7256 63.502 53.4215 63.3744 53.2134 63.5342L46.3492 68.8014C46.1673 68.941 45.9036 68.8659 45.8298 68.6489Z" stroke="#C1C4CA" stroke-linecap="round"/>
<path d="M33.3672 87.1077L36.5609 82.5894" stroke="#C1C4CA" stroke-linecap="round"/>
<path d="M29.4317 74.3766L22.1359 81.0458" stroke="#C1C4CA" stroke-linecap="round"/>
<path d="M17.632 69.9028C18.4055 69.6637 22.1677 67.4413 23.9521 66.3601" stroke="#C1C4CA" stroke-linecap="round"/>
<path d="M21.6605 58.947L11.1591 60.9574" stroke="#C1C4CA" stroke-linecap="round"/>
<path d="M19.7614 48.2346L11.6245 47.0424" stroke="#C1C4CA" stroke-linecap="round"/>
<path d="M24.2881 38.8903L13.8392 33.6458" stroke="#C1C4CA" stroke-linecap="round"/>
<path d="M28.1732 32.0396L16.9242 21.9224" stroke="#C1C4CA" stroke-linecap="round"/>
<path d="M36.3128 25.8157L31.7503 17.3391" stroke="#C1C4CA" stroke-linecap="round"/>
<path d="M46.6998 21.7221L43.5115 11.4082" stroke="#C1C4CA" stroke-linecap="round"/>
<path d="M57.5119 20.1453L58.6691 13.6082" stroke="#C1C4CA" stroke-linecap="round"/>
<path d="M69.25 24.9912L75.4 14.6155" stroke="#C1C4CA" stroke-linecap="round"/>
<path d="M78.4479 31.3287L83.8626 27.7128" stroke="#C1C4CA" stroke-linecap="round"/>
<path d="M81.686 41.8038L91.9236 37.2266" stroke="#C1C4CA" stroke-linecap="round"/>
<path d="M85.132 50.0958L91.6427 50.0253" stroke="#C1C4CA" stroke-linecap="round"/>
<path d="M84.5229 58.4056L92.1148 60.1195" stroke="#C1C4CA" stroke-linecap="round"/>
<path d="M82.3022 67.2136L88.1596 70.1699" stroke="#C1C4CA" stroke-linecap="round"/>
</svg>
