<svg width="122" height="100" viewBox="0 0 122 100" fill="none" xmlns="http://www.w3.org/2000/svg">
<path d="M11.8898 25.8889L36.6469 36.475" stroke="#C1C4CA" stroke-linecap="round"/>
<path d="M23.5974 42.6003L33.7623 44.2816" stroke="#C1C4CA" stroke-linecap="round"/>
<path d="M8.90604 59.911C18.6569 57.069 24.1238 55.4757 33.8746 52.6337" stroke="#C1C4CA" stroke-linecap="round"/>
<path d="M30.0078 67.6925L38.8911 61.8785" stroke="#C1C4CA" stroke-linecap="round"/>
<path d="M24.5893 88.4926L45.6569 67.3885" stroke="#C1C4CA" stroke-linecap="round"/>
<path d="M72.5169 42.274C74.1246 47.7901 74.3358 53.1208 73.4013 57.2709C72.4624 61.4404 70.4034 64.2989 67.5717 65.1242C64.7401 65.9495 61.4677 64.6449 58.4356 61.6328C55.4177 58.6347 52.7318 54.0252 51.1241 48.5092C49.5164 42.9931 49.3051 37.6624 50.2396 33.5123C51.1786 29.3428 53.2376 26.4843 56.0692 25.659C58.9008 24.8336 62.1732 26.1383 65.2053 29.1504C68.2233 32.1485 70.9091 36.758 72.5169 42.274Z" stroke="#C1C4CA"/>
<ellipse cx="60.8693" cy="45.6688" rx="1.98152" ry="3.71536" transform="rotate(-16.2493 60.8693 45.6688)" fill="#C1C4CA"/>
<path d="M106.377 36.2752C106.472 33.7706 105.054 30.555 104.332 29.2603L108.399 29.4939C110.448 30.8575 110.085 32.9156 109.647 33.7742L106.377 36.2752Z" fill="#C1C4CA"/>
<path d="M108.399 29.4938L58.2919 25.5223" stroke="#C1C4CA" stroke-linecap="round"/>
<path d="M70.4714 63.123L109.647 33.7742" stroke="#C1C4CA" stroke-linecap="round"/>
<path d="M61.5821 48.5571L73.6643 49.2926" stroke="#C1C4CA" stroke-linecap="round"/>
<path d="M59.9187 42.85L69.8523 36.2138" stroke="#C1C4CA" stroke-linecap="round"/>
<path d="M99.2913 69.945C96.7646 71.4554 94.3126 71.0091 93.7826 70.5186C93.8992 71.3085 94.1622 73.9119 95.0845 75.428C95.5581 76.2065 96.3883 76.55 97.0807 76.5232C97.7792 76.4962 98.6677 76.0572 99.0129 75.1861C99.6765 73.512 99.3889 70.765 99.2913 69.945Z" fill="#C1C4CA"/>
<path d="M90.281 48.7605C90.2316 48.4888 89.9714 48.3086 89.6997 48.3579C89.428 48.4072 89.2477 48.6675 89.297 48.9392L90.281 48.7605ZM93.8369 71.1477L93.345 71.237L93.3466 71.246L93.3485 71.2549L93.8369 71.1477ZM98.0504 57.2779L98.5481 57.2304L98.5477 57.2269L98.0504 57.2779ZM97.1484 43.5739C97.1203 43.2992 96.8748 43.0993 96.6 43.1275C96.3253 43.1556 96.1255 43.4012 96.1536 43.6759L97.1484 43.5739ZM96.8775 76.7114L96.8814 76.2114L96.8775 76.7114ZM99.3654 71.0844L99.8644 71.0496L99.8631 71.037L99.3654 71.0844ZM89.297 48.9392L93.345 71.237L94.3289 71.0584L90.281 48.7605L89.297 48.9392ZM98.5477 57.2269L97.1484 43.5739L96.1536 43.6759L97.553 57.3288L98.5477 57.2269ZM93.3485 71.2549C93.4848 71.8762 93.5793 72.518 93.6911 73.1726C93.8007 73.8137 93.9262 74.4625 94.124 75.039C94.3217 75.6153 94.6051 76.1612 95.0571 76.5646C95.5213 76.9789 96.1212 77.2055 96.8736 77.2114L96.8814 76.2114C96.3409 76.2072 95.984 76.0515 95.723 75.8185C95.4497 75.5747 95.2393 75.2083 95.0699 74.7145C94.9006 74.2209 94.7858 73.6418 94.6769 73.0042C94.5703 72.3801 94.4683 71.6924 94.3253 71.0406L93.3485 71.2549ZM96.8736 77.2114C97.7316 77.2182 98.4148 77.0374 98.9276 76.6509C99.4443 76.2616 99.7232 75.7127 99.8675 75.115C100.01 74.5251 100.029 73.8561 100.006 73.1767C99.9825 72.4995 99.9136 71.7595 99.8642 71.0496L98.8666 71.1191C98.9184 71.8632 98.9839 72.5567 99.0064 73.2111C99.0289 73.8633 99.0056 74.4239 98.8954 74.8803C98.7871 75.329 98.6033 75.6432 98.3258 75.8523C98.0446 76.0642 97.6021 76.2171 96.8814 76.2114L96.8736 77.2114ZM99.8631 71.037L98.5481 57.2304L97.5526 57.3253L98.8677 71.1318L99.8631 71.037Z" fill="#C1C4CA"/>
<path d="M108.73 28.9706C108.441 28.7878 108.059 28.8738 107.876 29.1628C107.693 29.4517 107.779 29.8343 108.068 30.0171L108.73 28.9706ZM109.073 33.5419C108.944 33.8588 109.097 34.2199 109.414 34.3482C109.731 34.4765 110.092 34.3236 110.221 34.0066L109.073 33.5419ZM108.068 30.0171C108.711 30.424 109.82 31.6973 109.073 33.5419L110.221 34.0066C111.274 31.4049 109.669 29.5647 108.73 28.9706L108.068 30.0171Z" fill="#C1C4CA"/>
<path d="M104.06 29.2107C104.9 30.4708 106.209 33.4862 106.139 36.3446" stroke="#C1C4CA" stroke-width="1.23845" stroke-linecap="round"/>
</svg>
