<svg width="42" height="42" viewBox="0 0 42 42" fill="none" xmlns="http://www.w3.org/2000/svg">
<path d="M28.875 15.0938V30.8438C28.8742 31.5397 28.5974 32.2069 28.1053 32.699C27.6132 33.1911 26.9459 33.468 26.25 33.4688H7.875C6.13513 33.4668 4.46709 32.7747 3.23681 31.5444C2.00653 30.3142 1.31449 28.6461 1.3125 26.9062V11.1562C1.3133 10.4603 1.59011 9.79308 2.08222 9.30097C2.57433 8.80886 3.24155 8.53205 3.9375 8.53125H22.3125C24.0524 8.53324 25.7204 9.22528 26.9507 10.4556C28.181 11.6858 28.873 13.3539 28.875 15.0938ZM40.0338 11.9899C39.835 11.8745 39.6093 11.8134 39.3794 11.8126C39.1496 11.8118 38.9235 11.8714 38.7239 11.9854L32.1614 15.7354C31.9605 15.8502 31.7935 16.0161 31.6773 16.2162C31.5612 16.4164 31.5 16.6436 31.5 16.875V25.125C31.5 25.3564 31.5612 25.5836 31.6773 25.7838C31.7935 25.9839 31.9605 26.1498 32.1614 26.2646L38.7239 30.0146C38.9235 30.1287 39.1495 30.1883 39.3794 30.1875C39.6093 30.1867 39.835 30.1255 40.0338 30.0102C40.2326 29.8948 40.3977 29.7292 40.5124 29.53C40.6271 29.3307 40.6875 29.1049 40.6875 28.875V13.125C40.6875 12.8951 40.6272 12.6692 40.5124 12.47C40.3977 12.2708 40.2327 12.1052 40.0338 11.9899Z" fill="#E95E5E"/>
</svg>
