<svg width="50" height="50" viewBox="0 0 50 50" fill="none" xmlns="http://www.w3.org/2000/svg">
<path fill-rule="evenodd" clip-rule="evenodd" d="M31.0159 18.4895C31.0159 21.8063 28.317 24.5053 25.0002 24.5053C21.6833 24.5053 18.9844 21.8062 18.9844 18.4894C18.9844 15.1726 21.6833 12.4736 25.0002 12.4736C28.317 12.4736 31.0159 15.1727 31.0159 18.4895ZM28.4971 18.4894C28.4971 16.561 26.9286 14.9925 25.0002 14.9925C23.0717 14.9925 21.5033 16.561 21.5033 18.4894C21.5033 20.4178 23.0717 21.9863 25.0002 21.9863C26.9286 21.9863 28.4971 20.4178 28.4971 18.4894Z" fill="#32C981"/>
<path fill-rule="evenodd" clip-rule="evenodd" d="M32.1734 31.7328H39.0716L44.8779 44.7001H5.12256L10.9288 31.7329H17.827L17.4195 31.2414C13.6691 26.7176 11.8108 22.6872 11.8108 19.2425V18.4901C11.8108 11.2173 17.7278 5.30005 25.0002 5.30005C32.2726 5.30005 38.1896 11.2174 38.1896 18.49V19.2424C38.1896 22.6871 36.3313 26.7176 32.5809 31.2414L32.1734 31.7328ZM14.3299 19.2425V18.7901L14.3298 18.4901C14.3298 12.6058 19.1163 7.81893 25.0002 7.81893C30.8841 7.81893 35.6706 12.6058 35.6706 18.4901V19.2425C35.6706 22.2856 33.6873 26.1266 30.0436 30.3409C28.1844 32.4913 26.3047 34.2529 25.1994 35.2369L24.9999 35.4144L24.8005 35.2369C23.7027 34.2602 21.8412 32.516 19.9872 30.3761C16.3239 26.1477 14.3299 22.2946 14.3299 19.2425ZM20.1298 34.2518H12.5607L9.01025 42.1813H40.9902L37.4396 34.2518H29.8705L29.7822 34.3422C27.6268 36.5499 25.8855 37.9744 25.7953 38.0478L25.0002 38.6951L24.2052 38.0479C24.1149 37.9744 22.3736 36.5499 20.2181 34.3422L20.1298 34.2518Z" fill="#32C981"/>
</svg>
